<svg width="172" height="40" viewBox="0 0 172 40" fill="none" xmlns="http://www.w3.org/2000/svg">
<g clip-path="url(#clip0_220_6882)">
<path d="M20.1318 39.9799C15.325 39.9799 10.5183 39.9934 5.71151 39.9799C2.88957 39.9664 0.715734 38.2246 0.128392 35.5309C0.0406286 35.1124 0.0271265 34.6803 0.0271265 34.2482C0.0203754 24.7495 0.0608818 15.2507 0.000122282 5.75876C-0.0201309 2.72754 2.47776 -0.0201419 5.78578 0.000111267C15.3183 0.0608708 24.8508 0.0136134 34.3832 0.0271155C37.779 0.0271155 40.1824 2.43724 40.1824 5.83977C40.1959 15.2777 40.1824 24.7225 40.1892 34.1604C40.1892 37.725 37.3402 40.0609 34.3022 40.0069C29.5765 39.9123 24.8508 39.9799 20.125 39.9799H20.1318ZM8.71573 11.4094C7.81109 15.406 6.65666 19.2069 4.96215 22.9064C4.13177 22.7444 3.42966 22.6094 2.63303 22.4541C2.63303 22.7849 2.63303 23.0752 2.63303 23.3655C2.63303 26.8896 2.70054 30.4136 2.60603 33.9309C2.55877 35.801 3.82797 37.4145 6.04232 37.3942C15.406 37.3334 24.7765 37.3334 34.1402 37.3942C36.017 37.4077 37.6035 36.1318 37.5427 33.9984C37.4482 30.6161 37.5157 27.2271 37.5157 23.8381C37.5157 23.5748 37.5157 23.3115 37.5157 23.001C37.2119 23.0617 36.9824 23.1022 36.6516 23.1697C34.4643 19.5714 32.2972 15.9731 30.6769 11.8752C33.006 10.6803 35.2271 9.53935 37.5225 8.36467C37.5225 7.56129 37.5225 6.70391 37.5225 5.84653C37.5022 3.81446 36.3343 2.63977 34.3022 2.63977C31.3588 2.63302 28.4153 2.63977 25.4786 2.63977C18.9166 2.63977 12.3613 2.63977 5.79928 2.63977C4.14527 2.63977 2.84232 3.59842 2.69379 5.11741C2.55877 6.57564 2.66679 8.06087 2.66679 9.5326C4.6651 10.1604 6.61616 10.768 8.71573 11.4229V11.4094Z" fill="#4988CE"/>
<path d="M51.1055 25.8228V1.56625C51.2135 1.53249 51.2878 1.48523 51.362 1.48523C53.9004 1.49198 56.4388 1.42447 58.9704 1.55274C60.0979 1.6135 61.2658 1.93755 62.3122 2.38987C64.2363 3.22025 65.1679 4.82025 65.3569 6.89283C65.5865 9.41772 64.6683 11.3553 62.4472 12.7325C62.7038 12.9215 62.8996 13.0903 63.1156 13.2253C65.6 14.7916 66.2751 17.1477 65.897 19.8684C65.4515 23.0549 63.6354 25.0532 60.3342 25.4582C57.3029 25.8295 54.2177 25.7215 51.1055 25.8228ZM55.7029 21.8397C56.6818 21.8397 57.573 21.9072 58.4506 21.8262C59.9494 21.6911 61.07 20.584 61.2726 19.1595C61.5426 17.2219 60.9418 15.946 59.4228 15.2911C58.2278 14.7713 56.9789 14.8793 55.7097 14.9536V21.8397H55.7029ZM55.7164 5.31983V11.092C56.6548 11.038 57.5797 11.092 58.4574 10.9165C59.9629 10.6127 60.827 9.46498 60.773 8.05401C60.719 6.52152 59.8548 5.54262 58.2346 5.34009C57.4447 5.23882 56.6278 5.31983 55.7164 5.31983Z" fill="#4988CE"/>
<path d="M136.54 20.1181H140.645C140.847 22.427 139.396 24.7561 137.215 25.5392C135.251 26.2481 133.246 26.3021 131.274 25.5797C128.878 24.7089 127.541 22.9198 127.406 20.4219C127.271 17.9308 127.305 15.4262 127.379 12.9283C127.473 9.84978 129.708 7.51392 132.793 7.18311C134.305 7.02109 135.804 7.08185 137.229 7.75695C139.294 8.74261 140.543 10.3359 140.685 12.6245C140.786 14.2447 140.705 15.8785 140.705 17.5797H131.524C131.592 18.8152 131.551 19.9966 131.754 21.1308C131.936 22.1502 133.009 22.697 134.224 22.643C135.44 22.5823 136.216 21.9409 136.452 20.8C136.493 20.5907 136.513 20.3814 136.547 20.1249L136.54 20.1181ZM136.479 14.0894C136.506 12.8337 136.675 11.5983 135.467 10.8894C134.501 10.3224 133.408 10.3156 132.476 10.9705C131.396 11.7333 131.537 12.9148 131.619 14.0894H136.479Z" fill="#4988CE"/>
<path d="M123.619 25.7013H119.338C119.338 25.3975 119.338 25.1072 119.338 24.8236C119.338 20.8202 119.338 16.8101 119.338 12.8067C119.338 12.5097 119.338 12.2126 119.325 11.9223C119.23 10.4236 118.184 9.81602 116.861 10.5519C116.233 10.9029 115.686 11.3958 115.072 11.8413V25.681H110.92V7.52066H114.896V9.46497C115.666 8.91138 116.307 8.44556 116.949 7.99324C117.86 7.34513 118.873 7.07509 120 7.12235C122.052 7.21686 123.254 8.27678 123.497 10.3088C123.571 10.9502 123.619 11.5915 123.619 12.2396C123.632 16.4321 123.619 20.6312 123.619 24.8236C123.619 25.0869 123.619 25.3502 123.619 25.7013Z" fill="#4988CE"/>
<path d="M69.7316 7.49368H73.924V8.39157C73.924 12.4017 73.924 16.4051 73.924 20.4152C73.924 20.6582 73.9173 20.9013 73.924 21.1443C74.0185 22.7983 75.2067 23.4127 76.6244 22.5148C77.1915 22.157 77.6911 21.7047 78.2582 21.2658V7.50718H82.4168V25.6743H78.3595V23.73C77.6844 24.216 77.1375 24.6211 76.5839 25.0194C75.3215 25.9443 73.9375 26.2886 72.3848 25.9241C71.0278 25.6068 70.2244 24.7629 69.9139 23.4464C69.7856 22.8996 69.7114 22.3325 69.7114 21.7722C69.6911 17.2017 69.6979 12.6312 69.6979 8.05402C69.6979 7.89875 69.7114 7.73672 69.7249 7.49368H69.7316Z" fill="#4988CE"/>
<path d="M98.0522 11.6726C96.9045 12.1182 95.7839 12.5502 94.6429 12.9958C94.4202 12.5772 94.2446 12.1857 94.0083 11.8346C93.4345 10.9637 92.6244 10.4979 91.5577 10.5519C90.8421 10.5857 90.329 10.9232 90.0725 11.5983C89.8227 12.2464 89.9442 12.854 90.4708 13.2861C91.0041 13.7249 91.605 14.103 92.2058 14.4473C93.4007 15.1156 94.6767 15.6557 95.8176 16.4118C97.9239 17.7958 98.5856 19.6118 98.0522 22.0625C97.5661 24.3106 95.4936 25.9038 92.8742 26.0523C89.0733 26.2684 86.7239 24.6751 85.2927 20.8608C86.5079 20.5232 87.7096 20.1924 88.9586 19.8481C89.1408 20.2734 89.2691 20.6447 89.4514 20.989C90.0995 22.2582 91.3214 22.8658 92.6649 22.616C93.34 22.4878 93.9138 22.2042 94.1096 21.4954C94.3054 20.8 94.1501 20.1182 93.6033 19.6456C93.0767 19.1933 92.4759 18.8152 91.8683 18.4844C90.8488 17.9376 89.7552 17.5257 88.7628 16.9384C86.5147 15.6017 85.5628 13.6169 85.9678 11.335C86.3661 9.09368 88.0539 7.56119 90.5315 7.18988C93.8868 6.68355 96.6548 8.22954 97.9375 11.335C97.978 11.4295 97.9982 11.5241 98.0522 11.6793V11.6726Z" fill="#4988CE"/>
<path d="M152.614 12.989C152.351 12.5232 152.142 12.0844 151.872 11.6996C151.305 10.8962 150.508 10.5046 149.516 10.5451C148.787 10.5722 148.26 10.93 148.03 11.5916C147.808 12.2397 147.895 12.908 148.476 13.3468C149.077 13.7992 149.725 14.1907 150.38 14.5553C151.548 15.2169 152.797 15.757 153.911 16.4928C155.882 17.789 156.523 19.6861 156.037 21.9679C155.605 24 154.012 25.4987 151.791 25.8768C149.603 26.2481 147.47 26.2008 145.708 24.5806C144.601 23.5679 143.851 22.3055 143.224 20.8473C144.493 20.4962 145.695 20.1654 146.937 19.8279C147.085 20.1924 147.193 20.4895 147.322 20.7797C147.895 22.0827 149.057 22.7848 150.42 22.6228C151.136 22.535 151.811 22.3257 152.054 21.5224C152.297 20.7122 152.074 20.0034 151.44 19.497C150.9 19.065 150.278 18.7207 149.664 18.3899C148.618 17.8295 147.517 17.384 146.505 16.7764C144.473 15.5544 143.669 13.7114 143.932 11.3688C144.169 9.30296 145.816 7.62194 148.294 7.22363C151.575 6.69705 154.262 7.75696 155.814 11.1257C155.882 11.2675 155.916 11.4228 155.997 11.6726C154.862 12.1114 153.749 12.5435 152.621 12.9823L152.614 12.989Z" fill="#4988CE"/>
<path d="M158.15 20.8473C159.44 20.4962 160.628 20.1722 161.85 19.8413C162.059 20.3139 162.214 20.7325 162.43 21.1308C163.065 22.2852 164.307 22.8523 165.576 22.6025C166.245 22.4675 166.825 22.1907 167.021 21.4751C167.217 20.773 167.048 20.0979 166.501 19.6321C165.975 19.1797 165.374 18.8017 164.76 18.4776C163.787 17.9578 162.741 17.5595 161.789 17.0127C159.453 15.6759 158.461 13.6709 158.879 11.3148C159.271 9.11392 160.918 7.60844 163.389 7.19662C166.832 6.62278 169.735 8.32405 170.957 11.6793C169.836 12.1114 168.716 12.5502 167.541 13.0093C167.359 12.6582 167.203 12.3207 167.021 12.0101C166.468 11.092 165.684 10.5519 164.577 10.5586C163.808 10.5586 163.227 10.93 162.977 11.5646C162.714 12.2262 162.863 12.9958 163.517 13.4346C164.429 14.0489 165.421 14.5418 166.38 15.0886C167.244 15.5814 168.162 16 168.965 16.5738C170.849 17.924 171.511 19.7873 170.964 22.0287C170.444 24.1485 169.033 25.4717 166.92 25.8295C165.644 26.0456 164.28 26.0118 162.998 25.816C162.201 25.6945 161.404 25.1612 160.749 24.6346C159.548 23.6827 158.825 22.346 158.164 20.8473H158.15Z" fill="#4988CE"/>
<path d="M106.208 25.7013H102.042V7.51392H106.208V25.7013Z" fill="#4988CE"/>
<path d="M80.3577 32.5468V39.3991H78.2716C78.2716 39.1089 78.2716 38.8253 78.2716 38.5418C78.2716 36.6312 78.2851 34.7274 78.2581 32.8169C78.2581 32.4523 78.1096 32.0878 77.9813 31.4869C77.2927 31.892 76.8134 32.1755 76.3543 32.4456V39.3924H74.302V30.3392H76.2733C76.3071 30.6295 76.3341 30.8861 76.3611 31.0751C77.0632 30.7578 77.7315 30.3055 78.4539 30.1705C79.2978 30.0084 79.8311 30.6228 80.1687 31.4532C80.4995 31.1629 80.7695 30.9131 81.0531 30.6768C81.7079 30.1232 82.4505 29.9814 83.2404 30.3055C84.0168 30.6228 84.2801 31.3046 84.2868 32.0675C84.3071 34.4844 84.2936 36.9013 84.2936 39.3856H82.2142V32.0675C81.5189 31.6084 81.2826 31.6759 80.3442 32.5536L80.3577 32.5468Z" fill="#4988CE"/>
<path d="M88.2228 30.3257H90.0726C90.1266 30.6093 90.1739 30.8793 90.2211 31.1561C92.7663 29.7991 93.0296 29.8126 94.0827 31.3856C94.3865 31.1291 94.6768 30.8658 94.9874 30.6228C96.2836 29.6169 97.7958 30.1637 98.1131 31.7502C98.1941 32.1418 98.2076 32.5468 98.2076 32.9519C98.2144 35.0717 98.2076 37.1915 98.2076 39.3789H96.1013C96.1013 38.4742 96.1013 37.5629 96.1013 36.6582C96.1013 35.3418 96.1148 34.0253 96.0878 32.7088C96.081 32.3713 95.9325 32.0337 95.7975 31.5072C95.1426 31.892 94.6701 32.162 94.1908 32.4456V39.3991H92.0912C92.0912 39.1156 92.0912 38.8253 92.0912 38.5418C92.0912 36.5772 92.1047 34.6126 92.0777 32.6548C92.0777 32.3308 91.9021 32.0067 91.7604 31.5274C91.146 31.8717 90.7207 32.1148 90.2616 32.378V39.3924H88.2161V30.319L88.2228 30.3257Z" fill="#4988CE"/>
<path d="M108.294 39.4194H106.363C106.336 39.1359 106.316 38.8793 106.282 38.4743C105.958 38.7105 105.722 38.9671 105.424 39.0818C104.864 39.2979 104.27 39.5544 103.683 39.5747C102.812 39.6084 102.299 39.1021 102.11 38.2447C102.029 37.8802 101.988 37.5021 101.981 37.1308C101.968 35.1122 101.975 33.0937 101.981 31.0819C101.981 30.8456 102.008 30.616 102.022 30.3392H104.081C104.081 30.8658 104.081 31.3721 104.081 31.8717C104.081 33.4852 104.068 35.0987 104.095 36.7122C104.095 37.124 104.23 37.5291 104.297 37.8802C105.222 38.2312 105.681 37.6979 106.241 37.2051V30.3527H108.3V39.4262L108.294 39.4194Z" fill="#4988CE"/>
<path d="M143.068 33.5662C143.156 32.4456 142.987 32.054 142.353 31.892C141.691 31.7165 141.219 32.0338 140.773 32.9519H138.856C138.842 31.757 139.477 30.8253 140.591 30.4135C141.529 30.0624 142.488 30.0287 143.453 30.2987C144.56 30.6093 145.202 31.4667 145.215 32.7156C145.242 34.5451 145.222 36.3747 145.222 38.2042C145.222 38.5755 145.222 38.9536 145.222 39.3857H143.278C143.21 39.1764 143.136 38.9536 143.068 38.7443C142.528 39.0008 142.002 39.3451 141.421 39.5004C140.503 39.7502 139.585 39.703 138.91 38.8861C138.397 38.2582 138.316 36.773 138.876 36.0641C139.328 35.4903 139.929 34.984 140.564 34.6194C141.327 34.1806 142.197 33.924 143.062 33.573L143.068 33.5662ZM143.041 37.3131V34.8287C142.218 35.389 141.529 35.7806 140.942 36.2937C140.53 36.6515 140.483 37.2186 140.82 37.6844C141.158 38.1502 141.684 38.0759 142.143 37.8937C142.481 37.7586 142.771 37.4954 143.048 37.3131H143.041Z" fill="#4988CE"/>
<path d="M162.073 34.903C162.073 35.5173 162.154 36.1519 162.052 36.7527C161.944 37.3671 161.796 38.0624 161.418 38.5283C160.466 39.7097 159.109 39.7637 157.725 39.4937C156.435 39.2371 155.619 38.4203 155.544 37.1443C155.45 35.5713 155.463 33.9848 155.598 32.4186C155.713 31.1494 156.625 30.4405 157.86 30.2582C158.434 30.1705 159.041 30.1637 159.615 30.2515C161.107 30.4675 161.958 31.4059 162.059 32.9046C162.106 33.573 162.066 34.2481 162.066 34.9165C162.066 34.9165 162.066 34.9165 162.073 34.9165V34.903ZM159.98 34.8895C159.98 34.2684 160 33.654 159.98 33.0329C159.953 32.3646 159.595 32.0473 158.886 32.0068C158.13 31.9662 157.59 32.2633 157.563 32.8844C157.509 34.2008 157.509 35.5173 157.563 36.8338C157.583 37.4549 158.17 37.8127 158.859 37.7654C159.554 37.7181 159.946 37.3806 159.98 36.7392C160.007 36.1249 159.98 35.5038 159.98 34.8827V34.8895Z" fill="#4988CE"/>
<path d="M70.7106 34.8962C70.6498 35.6996 70.6363 36.503 70.5081 37.2928C70.3258 38.4338 69.6304 39.1966 68.4895 39.4329C67.8684 39.5612 67.2 39.6219 66.5722 39.5477C65.0532 39.3722 64.1553 38.508 64.0473 36.9755C63.946 35.5105 63.9663 34.0253 64.0675 32.5603C64.1486 31.4194 64.8439 30.562 65.9848 30.346C66.8287 30.184 67.7604 30.1637 68.5975 30.346C69.8937 30.616 70.5418 31.6692 70.6363 33.2827C70.6701 33.816 70.6363 34.3561 70.6363 34.8962C70.6566 34.8962 70.6768 34.8962 70.7038 34.8962H70.7106ZM68.5502 34.9097C68.5502 34.3764 68.5502 33.8363 68.5502 33.303C68.5502 33.2489 68.5502 33.1949 68.5502 33.1409C68.503 32.3713 68.1519 32.0338 67.3823 32C66.5519 31.9662 66.0929 32.297 66.0659 33.0599C66.0186 34.2616 66.0253 35.47 66.0659 36.6785C66.0929 37.3941 66.5789 37.7722 67.3013 37.7654C68.0642 37.7654 68.5097 37.3536 68.5435 36.5907C68.5705 36.0304 68.5435 35.4633 68.5435 34.903L68.5502 34.9097Z" fill="#4988CE"/>
<path d="M114.248 39.3991H112.203V30.3257H114.127C114.174 30.589 114.221 30.8388 114.289 31.2101C114.613 30.9873 114.903 30.778 115.2 30.5823C115.949 30.0962 116.746 29.9477 117.576 30.3662C118.366 30.7645 118.488 31.5139 118.488 32.2903C118.494 34.4979 118.488 36.6987 118.488 38.9063C118.488 39.0616 118.468 39.2169 118.454 39.4059H116.381C116.381 38.7578 116.381 38.1232 116.381 37.4886C116.381 35.9831 116.381 34.4776 116.381 32.9721C116.381 32.5198 116.469 31.919 115.916 31.8177C115.538 31.7502 115.085 32.0337 114.687 32.1958C114.525 32.2633 114.403 32.4388 114.248 32.5806V39.4059V39.3991Z" fill="#4988CE"/>
<path d="M58.3966 36.1384H60.3747C60.6448 37.7316 59.8616 39.0818 58.3561 39.4329C57.6405 39.6017 56.8439 39.6152 56.1283 39.4869C54.7038 39.2371 53.9207 38.292 53.8532 36.854C53.7924 35.5375 53.7924 34.2211 53.8532 32.9046C53.9207 31.3991 54.7713 30.4675 56.2903 30.2447C56.9654 30.1502 57.7013 30.1637 58.3629 30.3122C59.7334 30.616 60.449 31.757 60.4152 33.4245H58.5587C58.3426 33.0059 58.1941 32.5401 57.8971 32.2228C57.7215 32.0337 57.2962 32.0202 56.9857 32.0337C56.2633 32.054 55.9393 32.4118 55.9258 33.1679C55.9123 34.2953 55.9123 35.4228 55.9258 36.557C55.9325 37.4008 56.2768 37.7316 57.1004 37.7451C57.9308 37.7586 58.2954 37.4413 58.3764 36.638C58.3899 36.5029 58.3899 36.3747 58.4034 36.1519L58.3966 36.1384Z" fill="#4988CE"/>
<path d="M135.237 33.4245H133.333C133.036 32.2363 132.706 31.9325 131.801 32.0135C131.112 32.0743 130.781 32.3983 130.768 33.1004C130.748 34.2548 130.754 35.4093 130.768 36.5637C130.775 37.3738 131.099 37.6911 131.882 37.7316C132.719 37.7721 133.124 37.4548 133.219 36.6785C133.239 36.5232 133.239 36.3612 133.259 36.1519H135.244C135.46 37.8329 134.677 39.1156 133.104 39.4532C132.388 39.6017 131.592 39.5949 130.876 39.4532C129.539 39.1966 128.77 38.265 128.709 36.908C128.648 35.5645 128.648 34.2211 128.709 32.8776C128.776 31.4059 129.62 30.4675 131.079 30.2447C131.754 30.1435 132.483 30.157 133.151 30.2852C134.555 30.562 135.338 31.7907 135.244 33.4177L135.237 33.4245Z" fill="#4988CE"/>
<path d="M149.077 32.5198C148.766 32.4658 148.564 32.4253 148.3 32.3848V30.8118C148.51 30.7646 148.759 30.7038 149.07 30.6295V28.2667H151.183V30.6768C151.649 30.7038 152.041 30.7308 152.459 30.7578V32.4051C152.047 32.4321 151.676 32.4591 151.244 32.4861V37.5156C151.656 37.6439 152.061 37.7654 152.479 37.8937V39.5679C151.831 39.5679 151.21 39.6354 150.616 39.5544C149.509 39.3992 149.09 38.8658 149.084 37.7451C149.07 36.0304 149.084 34.3089 149.084 32.5266L149.077 32.5198Z" fill="#4988CE"/>
<path d="M165.84 30.3257H167.757C167.811 30.6228 167.858 30.8928 167.899 31.0886C168.533 30.724 169.154 30.3595 169.951 29.9004V32.3376C169.749 32.3038 169.553 32.2768 169.357 32.243C168.392 32.0608 167.906 32.4388 167.899 33.4177C167.885 35.2473 167.899 37.07 167.899 38.8996C167.899 39.0548 167.879 39.2101 167.872 39.4059H165.853V30.3325L165.84 30.3257Z" fill="#4988CE"/>
<path d="M122.633 30.3257H124.652V39.4127H122.633V30.3257Z" fill="#4988CE"/>
<path d="M102.022 4.21942V0.486084H106.187V4.21942H102.022Z" fill="#4988CE"/>
<path d="M46.3054 35.7671V33.9983H50.3493V35.7671H46.3054Z" fill="#4988CE"/>
<path d="M122.633 26.8354C123.281 26.8354 123.794 26.8354 124.307 26.8354C124.415 26.8354 124.516 26.8625 124.672 26.8827V28.692H122.633V26.8354Z" fill="#4988CE"/>
<path d="M24.2498 23.5004C26.2278 25.4312 28.4354 27.092 30.724 28.5907C30.5823 30.2447 29.2793 31.0684 27.8616 30.3798C27.146 30.0287 26.5046 29.5156 25.8498 29.043C24.8506 28.3139 23.8717 27.5511 22.8793 26.8084C22.7173 26.6869 22.5215 26.6059 22.3392 26.5047C22.2785 26.5587 22.2245 26.6127 22.1637 26.6599C22.3122 26.849 22.427 27.0717 22.6093 27.2135C24.1958 28.4152 25.8025 29.5966 27.3958 30.7916C27.4363 30.8186 27.4498 30.8793 27.4768 30.9266C27.119 31.6895 26.2548 32.0068 25.1747 31.9393C23.7907 31.8582 22.7578 31.1291 21.7316 30.3257C21.1173 29.8397 20.4827 29.3671 19.8211 28.9485C19.8953 29.6844 21.5089 30.9401 23.9932 32.3173C23.0076 33.0127 21.2388 32.5806 20.4017 31.4262C20.2126 31.1629 20.1046 30.8388 19.8953 30.6025C19.5713 30.2312 19.1932 29.9139 18.7612 29.5089C18.9299 27.8819 17.9713 26.957 16.3038 27.3013C15.3789 25.2827 14.4607 25.0734 12.1721 26.2414C11.6118 25.7013 11.1527 25.1207 10.5654 24.7291C9.87678 24.2768 9.11391 24.4591 8.47256 24.9182C6.60252 24 6.07594 22.8186 6.63628 20.9148C7.37214 18.4169 8.10801 15.9257 8.83037 13.4279C8.95864 12.9958 9.02615 12.5435 9.16117 11.9426C11.5713 12.0169 13.9679 12.0979 16.4726 12.1722C16.1013 12.503 15.7299 12.7595 15.4464 13.0903C13.9207 14.8726 13.6574 16.9654 14.1029 19.1595C14.3797 20.5232 16.0945 20.908 17.2827 19.9156C17.6472 19.6118 17.9173 19.1933 18.1873 18.7949C18.4439 18.4169 18.6261 17.9916 18.8489 17.6C19.6928 16.1148 20.7325 15.7502 22.211 16.6414C23.2371 17.2625 24.1418 18.0928 25.0667 18.8692C27.2202 20.665 29.3536 22.4743 31.4869 24.2836C31.838 24.5806 32.1755 24.8844 32.4996 25.2085C33.1814 25.8971 33.3029 26.4574 32.9181 27.065C32.4523 27.8076 31.4329 28.2329 30.6768 27.9021C30.0894 27.6456 29.5291 27.2945 29.0295 26.8962C27.6861 25.816 26.3831 24.6886 25.0599 23.5882C24.8844 23.4397 24.6481 23.3587 24.4456 23.2439C24.3848 23.3317 24.324 23.4194 24.2633 23.5072L24.2498 23.5004Z" fill="#4988CE"/>
<path d="M35.4699 23.4599C34.9299 23.8852 34.4775 24.3376 33.9375 24.6481C33.3974 24.9722 32.8438 24.7899 32.3712 24.3848C29.8801 22.2447 27.4092 20.0776 24.8843 17.9781C23.9391 17.1949 22.9197 16.4591 21.8328 15.8987C20.5299 15.2236 19.524 15.5882 18.7071 16.8101C18.3358 17.3637 18.0995 18.0253 17.6944 18.5452C17.3096 19.038 16.837 19.5308 16.2969 19.8211C15.5206 20.2329 14.9062 19.9089 14.6294 19.1257C13.8328 16.8506 14.994 13.6574 17.0666 12.449C17.8834 11.9764 18.7138 11.5308 19.551 11.0987C20.5164 10.5992 21.5358 10.3561 22.5957 10.7072C24.405 11.3148 26.2683 11.5106 28.1518 11.6793C29.2455 11.7806 30.0961 12.3072 30.5957 13.2996C31.8581 15.7907 33.1206 18.2886 34.356 20.7933C34.7543 21.6101 35.0649 22.4675 35.4699 23.4532V23.4599Z" fill="#4988CE"/>
<path d="M14.2784 25.8768C14.6767 26.1873 15.1696 26.4304 15.4531 26.8287C15.7974 27.2945 15.6826 27.8751 15.3046 28.3207C14.8658 28.8338 14.4202 29.3401 13.9071 29.7722C13.1442 30.427 12.4691 30.4135 11.902 29.8329C11.1797 29.0971 11.0244 28.0169 11.5375 27.335C12.0303 26.6869 13.3468 26.0321 14.2784 25.8768Z" fill="#4988CE"/>
<path d="M18.3562 28.881C18.201 29.8127 16.9655 31.4667 16.1824 31.6962C15.6626 31.8515 14.6432 31.4869 14.3866 31.0211C14.0626 30.4338 14.3934 30.0017 14.7849 29.5966C15.2845 29.0701 15.7638 28.5232 16.2904 28.0236C16.6685 27.6658 17.1748 27.5038 17.6136 27.8549C17.9309 28.1114 18.1132 28.53 18.3562 28.8743V28.881Z" fill="#4988CE"/>
<path d="M18.9096 30.265C19.578 31.0819 20.2801 31.9392 21.0565 32.8911C20.4556 33.0397 19.8548 33.2625 19.2337 33.3165C18.275 33.3975 17.7822 32.9992 17.6404 32.216C17.4919 31.3519 17.9645 30.5688 18.9096 30.265Z" fill="#4988CE"/>
<path d="M10.1131 27.5781C9.38396 27.5781 8.63459 26.7679 8.6616 26.0118C8.68185 25.4177 9.11392 24.9857 9.68776 24.9857C10.4844 24.9857 11.3958 25.7688 11.3755 26.4371C11.362 27.0042 10.7207 27.5781 10.1063 27.5781H10.1131Z" fill="#4988CE"/>
</g>
<defs>
<clipPath id="clip0_220_6882">
<rect width="171.139" height="40" fill="white"/>
</clipPath>
</defs>
</svg>
