<svg width="41" height="40" viewBox="0 0 41 40" fill="none" xmlns="http://www.w3.org/2000/svg">
<path d="M20.1279 39.9721C15.322 39.9721 10.5162 39.9856 5.7104 39.9721C2.88901 39.9586 0.715595 38.2172 0.128367 35.524C0.0406207 35.1055 0.0271212 34.6735 0.0271212 34.2416C0.0203715 24.7447 0.0608699 15.2478 0.000122258 5.75764C-0.020127 2.72701 2.47728 -0.020138 5.78465 0.000111246C15.3153 0.0608589 24.8459 0.0136107 34.3766 0.0271102C37.7717 0.0271102 40.1746 2.43677 40.1746 5.83864C40.1881 15.2748 40.1746 24.7177 40.1813 34.1538C40.1813 37.7177 37.3329 40.0531 34.2956 39.9991C29.5707 39.9046 24.8459 39.9721 20.1211 39.9721H20.1279ZM8.71404 11.4072C7.80957 15.403 6.65537 19.2031 4.96118 22.902C4.13096 22.74 3.42899 22.605 2.63252 22.4498C2.63252 22.7805 2.63252 23.0707 2.63252 23.361C2.63252 26.8843 2.70002 30.4077 2.60552 33.9243C2.55827 35.794 3.82723 37.4072 6.04114 37.3869C15.403 37.3262 24.7717 37.3262 34.1336 37.3869C36.01 37.4004 37.5962 36.1247 37.5354 33.9918C37.4409 30.6102 37.5084 27.2218 37.5084 23.8335C37.5084 23.5702 37.5084 23.307 37.5084 22.9965C37.2047 23.0572 36.9752 23.0977 36.6445 23.1652C34.4576 19.5676 32.2909 15.97 30.6709 11.8729C32.9996 10.6782 35.2203 9.5375 37.5152 8.36304C37.5152 7.55982 37.5152 6.70261 37.5152 5.84539C37.4949 3.81372 36.3272 2.63926 34.2956 2.63926C31.3527 2.63251 28.4098 2.63926 25.4736 2.63926C18.9129 2.63926 12.3589 2.63926 5.79815 2.63926C4.14446 2.63926 2.84176 3.59772 2.69327 5.11642C2.55827 6.57436 2.66627 8.0593 2.66627 9.53075C4.66419 10.1585 6.61487 10.766 8.71404 11.4207V11.4072Z" fill="#4988CE"/>
<path d="M24.2451 23.4959C26.2228 25.4263 28.4299 27.0867 30.7181 28.5852C30.5763 30.2389 29.2736 31.0623 27.8562 30.3739C27.1407 30.0229 26.4995 29.5099 25.8448 29.0374C24.8458 28.3084 23.8671 27.5457 22.8749 26.8032C22.7129 26.6817 22.5172 26.6007 22.3349 26.4995C22.2742 26.5535 22.2202 26.6075 22.1594 26.6547C22.3079 26.8437 22.4227 27.0665 22.6049 27.2082C24.1911 28.4097 25.7975 29.5909 27.3905 30.7856C27.431 30.8126 27.4445 30.8733 27.4715 30.9206C27.1137 31.6833 26.2498 32.0005 25.1698 31.933C23.7861 31.852 22.7534 31.1231 21.7274 30.3199C21.1132 29.8339 20.4787 29.3614 19.8173 28.9429C19.8915 29.6786 21.5047 30.9341 23.9886 32.311C23.0031 33.0063 21.2347 32.5743 20.3977 31.4201C20.2087 31.1568 20.1007 30.8328 19.8915 30.5966C19.5675 30.2254 19.1895 29.9081 18.7576 29.5031C18.9263 27.8764 17.9678 26.9517 16.3006 27.296C15.3759 25.2778 14.458 25.0686 12.1698 26.2363C11.6096 25.6963 11.1506 25.1158 10.5634 24.7243C9.87489 24.2721 9.11217 24.4543 8.47094 24.9133C6.60127 23.9953 6.07479 22.8141 6.63501 20.9107C7.37074 18.4133 8.10646 15.9227 8.82868 13.4253C8.95693 12.9933 9.02442 12.541 9.15942 11.9403C11.5691 12.0146 13.9652 12.0956 16.4694 12.1698C16.0982 12.5005 15.7269 12.757 15.4434 13.0878C13.918 14.8697 13.6547 16.9621 14.1002 19.1558C14.377 20.5192 16.0914 20.904 17.2794 19.9118C17.6438 19.608 17.9138 19.1895 18.1838 18.7913C18.4403 18.4133 18.6226 17.9881 18.8453 17.5966C19.689 16.1116 20.7285 15.7472 22.2067 16.6381C23.2326 17.2591 24.1371 18.0893 25.0618 18.8655C27.215 20.661 29.3479 22.4699 31.4808 24.2788C31.8318 24.5758 32.1693 24.8796 32.4933 25.2036C33.175 25.892 33.2965 26.4523 32.9118 27.0597C32.446 27.8022 31.4268 28.2274 30.6708 27.8967C30.0836 27.6402 29.5234 27.2892 29.0239 26.891C27.6807 25.811 26.378 24.6838 25.0551 23.5836C24.8796 23.4351 24.6433 23.3541 24.4408 23.2394C24.3801 23.3271 24.3193 23.4149 24.2586 23.5026L24.2451 23.4959Z" fill="#4988CE"/>
<path d="M35.4632 23.4554C34.9232 23.8806 34.4709 24.3328 33.931 24.6433C33.391 24.9673 32.8375 24.7851 32.365 24.3801C29.8744 22.2404 27.404 20.0737 24.8796 17.9746C23.9346 17.1916 22.9154 16.4559 21.8287 15.8957C20.526 15.2207 19.5203 15.5852 18.7035 16.8069C18.3323 17.3603 18.0961 18.0218 17.6911 18.5416C17.3063 19.0343 16.8339 19.527 16.2939 19.8173C15.5177 20.229 14.9034 19.905 14.6267 19.122C13.8302 16.8474 14.9912 13.6547 17.0634 12.4465C17.8801 11.9741 18.7103 11.5286 19.5473 11.0966C20.5125 10.5971 21.5317 10.3541 22.5914 10.7051C24.4003 11.3126 26.2633 11.5083 28.1464 11.6771C29.2399 11.7783 30.0904 12.3048 30.5898 13.297C31.852 15.7877 33.1142 18.2851 34.3495 20.7892C34.7477 21.6059 35.0582 22.4632 35.4632 23.4486V23.4554Z" fill="#4988CE"/>
<path d="M14.2757 25.8718C14.674 26.1823 15.1667 26.4252 15.4502 26.8235C15.7944 27.2892 15.6797 27.8697 15.3017 28.3152C14.863 28.8282 14.4175 29.3344 13.9045 29.7664C13.1418 30.4211 12.4668 30.4076 11.8998 29.8271C11.1776 29.0914 11.0224 28.0114 11.5354 27.3297C12.0281 26.6817 13.3443 26.027 14.2757 25.8718Z" fill="#4988CE"/>
<path d="M18.3526 28.8754C18.1973 29.8069 16.9621 31.4606 16.1792 31.6901C15.6594 31.8453 14.6402 31.4808 14.3837 31.0151C14.0597 30.4279 14.3905 29.9959 14.782 29.5909C15.2814 29.0644 15.7607 28.5177 16.2872 28.0182C16.6651 27.6605 17.1714 27.4985 17.6101 27.8495C17.9273 28.1059 18.1096 28.5244 18.3526 28.8687V28.8754Z" fill="#4988CE"/>
<path d="M18.906 30.2591C19.5742 31.0758 20.2762 31.933 21.0524 32.8847C20.4517 33.0332 19.851 33.256 19.23 33.31C18.2715 33.391 17.7788 32.9927 17.6371 32.2098C17.4886 31.3458 17.961 30.5628 18.906 30.2591Z" fill="#4988CE"/>
<path d="M10.1114 27.5732C9.38225 27.5732 8.63288 26.7631 8.65989 26.007C8.68014 25.4129 9.11221 24.9808 9.68605 24.9808C10.4827 24.9808 11.3941 25.7639 11.3738 26.4323C11.3603 26.9994 10.719 27.5732 10.1046 27.5732H10.1114Z" fill="#4988CE"/>
</svg>
