<svg width="20" height="20" viewBox="0 0 20 20" fill="none" xmlns="http://www.w3.org/2000/svg">
<path d="M8.44551 6.14339L10 2.40594L11.5545 6.14339C11.9145 7.00898 12.7285 7.60041 13.663 7.67532L17.6979 7.9988L14.6237 10.6321C13.9118 11.242 13.6008 12.199 13.8184 13.1109L14.7576 17.0482L11.3031 14.9383C10.5031 14.4496 9.49691 14.4496 8.69686 14.9383L5.24243 17.0482L6.18164 13.1109C6.39916 12.199 6.08823 11.242 5.37625 10.6321L2.30209 7.9988L6.33699 7.67532C7.27146 7.60041 8.08549 7.00898 8.44551 6.14339ZM15.0365 18.2176C15.0364 18.2173 15.0364 18.2171 15.0363 18.2169L15.0365 18.2176Z" fill="#F1C644" stroke="#F1C644" stroke-width="3"/>
</svg>
