<svg width="23" height="24" viewBox="0 0 23 24" fill="none" xmlns="http://www.w3.org/2000/svg">
<path d="M5.44735 15.1184H17.5526C17.8103 15.1184 18.026 15.0315 18.1998 14.8577C18.3736 14.6839 18.4605 14.4681 18.4605 14.2105C18.4605 13.9529 18.3736 13.7372 18.1998 13.5634C18.026 13.3896 17.8103 13.3027 17.5526 13.3027H5.44735C5.18973 13.3027 4.97401 13.3896 4.8002 13.5634C4.62639 13.7372 4.53949 13.9529 4.53949 14.2105C4.53949 14.4681 4.62639 14.6839 4.8002 14.8577C4.97401 15.0315 5.18973 15.1184 5.44735 15.1184ZM5.44735 11.4868H17.5526C17.8103 11.4868 18.026 11.3999 18.1998 11.2261C18.3736 11.0523 18.4605 10.8366 18.4605 10.5789C18.4605 10.3213 18.3736 10.1056 18.1998 9.93179C18.026 9.75798 17.8103 9.67107 17.5526 9.67107H5.44735C5.18973 9.67107 4.97401 9.75798 4.8002 9.93179C4.62639 10.1056 4.53949 10.3213 4.53949 10.5789C4.53949 10.8366 4.62639 11.0523 4.8002 11.2261C4.97401 11.3999 5.18973 11.4868 5.44735 11.4868ZM5.44735 7.85522H17.5526C17.8103 7.85522 18.026 7.76831 18.1998 7.5945C18.3736 7.42069 18.4605 7.20497 18.4605 6.94735C18.4605 6.68973 18.3736 6.47402 18.1998 6.3002C18.026 6.12639 17.8103 6.03948 17.5526 6.03948H5.44735C5.18973 6.03948 4.97401 6.12639 4.8002 6.3002C4.62639 6.47402 4.53949 6.68973 4.53949 6.94735C4.53949 7.20497 4.62639 7.42069 4.8002 7.5945C4.97401 7.76831 5.18973 7.85522 5.44735 7.85522ZM2.18827 19.6579C1.5768 19.6579 1.05921 19.446 0.635528 19.0224C0.211843 18.5987 0 18.0811 0 17.4696V3.68828C0 3.0768 0.211843 2.55921 0.635528 2.13553C1.05921 1.71184 1.5768 1.5 2.18827 1.5H20.8117C21.4232 1.5 21.9408 1.71184 22.3645 2.13553C22.7882 2.55921 23 3.0768 23 3.68828V21.2967C23 21.7871 22.7761 22.1266 22.3284 22.3152C21.8806 22.5037 21.4845 22.4258 21.14 22.0812L18.7166 19.6579H2.18827ZM19.4895 17.8421L21.1842 19.5182V3.68828C21.1842 3.59514 21.1454 3.50977 21.0678 3.43216C20.9902 3.35456 20.9049 3.31576 20.8117 3.31576H2.18827C2.09514 3.31576 2.00977 3.35456 1.93216 3.43216C1.85456 3.50977 1.81576 3.59514 1.81576 3.68828V17.4696C1.81576 17.5627 1.85456 17.6481 1.93216 17.7257C2.00977 17.8033 2.09514 17.8421 2.18827 17.8421H19.4895Z" fill="#726C6C"/>
</svg>
