<svg width="24" height="24" viewBox="0 0 24 24" fill="none" xmlns="http://www.w3.org/2000/svg">
<path d="M12.1549 21.5458C11.8957 21.5458 11.6353 21.4993 11.3738 21.4061C11.1123 21.313 10.8823 21.1671 10.6836 20.9685L8.94468 19.3878C6.79831 17.4308 4.88202 15.5083 3.19581 13.6204C1.50961 11.7324 0.666504 9.70982 0.666504 7.55262C0.666504 5.83461 1.24577 4.39634 2.40431 3.23781C3.56285 2.07927 5.00112 1.5 6.71912 1.5C7.69529 1.5 8.65945 1.72504 9.61159 2.17511C10.5637 2.62519 11.4153 3.35617 12.1665 4.36805C12.9177 3.35617 13.7693 2.62519 14.7214 2.17511C15.6736 1.72504 16.6377 1.5 17.6139 1.5C19.3319 1.5 20.7702 2.07927 21.9287 3.23781C23.0872 4.39634 23.6665 5.83461 23.6665 7.55262C23.6665 9.7331 22.809 11.7782 21.0941 13.6879C19.3792 15.5976 17.4672 17.5038 15.3581 19.4065L13.6377 20.9685C13.4391 21.1671 13.2071 21.313 12.9417 21.4061C12.6763 21.4993 12.414 21.5458 12.1549 21.5458ZM11.2959 6.20708C10.6409 5.20916 9.95149 4.4778 9.22749 4.013C8.50349 3.54818 7.66737 3.31576 6.71912 3.31576C5.50859 3.31576 4.49982 3.71927 3.6928 4.52629C2.88578 5.33331 2.48227 6.34209 2.48227 7.55262C2.48227 8.52415 2.79537 9.5399 3.42158 10.5999C4.04778 11.6599 4.83384 12.7136 5.77975 13.7612C6.72568 14.8088 7.75036 15.8323 8.8538 16.8317C9.95724 17.8312 10.98 18.7601 11.922 19.6183C11.9919 19.6804 12.0734 19.7114 12.1665 19.7114C12.2596 19.7114 12.3411 19.6804 12.411 19.6183C13.353 18.7601 14.3758 17.8312 15.4792 16.8317C16.5826 15.8323 17.6073 14.8088 18.5533 13.7612C19.4992 12.7136 20.2852 11.6599 20.9114 10.5999C21.5376 9.5399 21.8507 8.52415 21.8507 7.55262C21.8507 6.34209 21.4472 5.33331 20.6402 4.52629C19.8332 3.71927 18.8244 3.31576 17.6139 3.31576C16.6656 3.31576 15.8295 3.54818 15.1055 4.013C14.3815 4.4778 13.6921 5.20916 13.0371 6.20708C12.9347 6.36227 12.8059 6.47868 12.6507 6.55629C12.4955 6.63389 12.3341 6.67268 12.1665 6.67268C11.9989 6.67268 11.8375 6.63389 11.6823 6.55629C11.5271 6.47868 11.3983 6.36227 11.2959 6.20708Z" fill="#726C6C"/>
</svg>
