<svg width="24" height="24" viewBox="0 0 24 24" fill="none" xmlns="http://www.w3.org/2000/svg">
<path d="M4.47819 20.2605L6.09663 21.8789C6.28287 22.0652 6.37478 22.2831 6.37236 22.5328C6.36996 22.7824 6.27805 23.0044 6.09663 23.1986C5.90235 23.3929 5.67919 23.4933 5.42714 23.4997C5.17507 23.5061 4.9519 23.4122 4.75765 23.2179L1.65332 20.1136C1.53612 19.9964 1.45344 19.8728 1.40527 19.7427C1.35709 19.6127 1.33301 19.4722 1.33301 19.3213C1.33301 19.1704 1.35709 19.0299 1.40527 18.8998C1.45344 18.7698 1.53612 18.6462 1.65332 18.5289L4.75765 15.4246C4.94387 15.2384 5.16502 15.1465 5.4211 15.1489C5.67718 15.1513 5.90235 15.2496 6.09663 15.4439C6.27805 15.6382 6.37198 15.8581 6.37841 16.1037C6.38481 16.3494 6.29089 16.5693 6.09663 16.7636L4.47819 18.382H17.5747C17.6871 18.382 17.7794 18.3459 17.8516 18.2737C17.9239 18.2014 17.96 18.1091 17.96 17.9967V14.312C17.96 14.0455 18.0499 13.8223 18.2297 13.6425C18.4096 13.4627 18.6327 13.3727 18.8992 13.3727C19.1657 13.3727 19.3889 13.4627 19.5687 13.6425C19.7486 13.8223 19.8385 14.0455 19.8385 14.312V17.9967C19.8385 18.6213 19.6173 19.1547 19.175 19.597C18.7327 20.0393 18.1992 20.2605 17.5747 20.2605H4.47819ZM18.5332 5.61796H5.43675C5.32435 5.61796 5.23203 5.65408 5.15977 5.72632C5.08753 5.79858 5.05141 5.89091 5.05141 6.0033V9.68802C5.05141 9.95454 4.9615 10.1777 4.78169 10.3575C4.60186 10.5373 4.37868 10.6273 4.11217 10.6273C3.84567 10.6273 3.62251 10.5373 3.44267 10.3575C3.26286 10.1777 3.17295 9.95454 3.17295 9.68802V6.0033C3.17295 5.37875 3.39412 4.84531 3.83644 4.40299C4.27876 3.96067 4.8122 3.73951 5.43675 3.73951H18.5332L16.9148 2.12107C16.7285 1.93485 16.6366 1.7169 16.639 1.46723C16.6414 1.21758 16.7334 0.995623 16.9148 0.801367C17.1091 0.607089 17.3322 0.506736 17.5843 0.500307C17.8363 0.493899 18.0595 0.587824 18.2538 0.78208L21.3581 3.88641C21.4753 4.0036 21.558 4.12723 21.6061 4.25728C21.6543 4.38734 21.6784 4.52782 21.6784 4.67872C21.6784 4.82965 21.6543 4.97014 21.6061 5.10019C21.558 5.23022 21.4753 5.35385 21.3581 5.47107L18.2538 8.57536C18.0675 8.7616 17.8464 8.85352 17.5903 8.85112C17.3342 8.8487 17.1091 8.75036 16.9148 8.55611C16.7334 8.36185 16.6394 8.1419 16.633 7.89626C16.6266 7.65061 16.7205 7.43065 16.9148 7.23637L18.5332 5.61796Z" fill="#726C6C"/>
</svg>
