<svg width="24" height="18" viewBox="0 0 24 18" fill="none" xmlns="http://www.w3.org/2000/svg">
<path d="M13.982 9.84941C13.1907 9.84941 12.5209 9.57535 11.9728 9.02721C11.4247 8.47908 11.1506 7.80934 11.1506 7.01798C11.1506 6.22664 11.4247 5.55691 11.9728 5.00878C12.5209 4.46064 13.1907 4.18658 13.982 4.18658C14.7733 4.18658 15.4431 4.46064 15.9912 5.00878C16.5394 5.55691 16.8134 6.22664 16.8134 7.01798C16.8134 7.80934 16.5394 8.47908 15.9912 9.02721C15.4431 9.57535 14.7733 9.84941 13.982 9.84941ZM6.51133 13.3561C5.94832 13.3561 5.46634 13.1556 5.06539 12.7547C4.66445 12.3537 4.46399 11.8717 4.46399 11.3087V2.72724C4.46399 2.16424 4.66445 1.68226 5.06539 1.2813C5.46634 0.880368 5.94832 0.679901 6.51133 0.679901H21.4527C22.0157 0.679901 22.4977 0.880368 22.8986 1.2813C23.2995 1.68226 23.5 2.16424 23.5 2.72724V11.3087C23.5 11.8717 23.2995 12.3537 22.8986 12.7547C22.4977 13.1556 22.0157 13.3561 21.4527 13.3561H6.51133ZM8.21018 11.6572H19.7538C19.7538 11.0924 19.9543 10.61 20.3552 10.2099C20.7562 9.80989 21.2382 9.60987 21.8012 9.60987V4.42609C21.2363 4.42609 20.7539 4.22562 20.3539 3.82469C19.9539 3.42374 19.7538 2.94176 19.7538 2.37875H8.21018C8.21018 2.94359 8.00971 3.42602 7.60877 3.82605C7.20782 4.22608 6.72584 4.42609 6.16283 4.42609V9.60987C6.72767 9.60987 7.21011 9.81035 7.61013 10.2113C8.01016 10.6122 8.21018 11.0942 8.21018 11.6572ZM19.2746 17.3201H2.54734C1.98432 17.3201 1.50234 17.1196 1.1014 16.7186C0.700467 16.3177 0.5 15.8357 0.5 15.2727V4.90529C0.5 4.66461 0.581433 4.46288 0.744298 4.30009C0.907183 4.13728 1.10901 4.05588 1.34978 4.05588C1.59056 4.05588 1.79227 4.13728 1.95489 4.30009C2.11751 4.46288 2.19882 4.66461 2.19882 4.90529V15.2727C2.19882 15.3598 2.23513 15.4397 2.30775 15.5123C2.38034 15.5849 2.46021 15.6212 2.54734 15.6212H19.2746C19.5153 15.6212 19.717 15.7027 19.8798 15.8656C20.0426 16.0284 20.1241 16.2302 20.1241 16.471C20.1241 16.7118 20.0426 16.9135 19.8798 17.0761C19.717 17.2388 19.5153 17.3201 19.2746 17.3201ZM6.51133 11.6572H6.16283V2.37875H6.51133C6.41695 2.37875 6.33527 2.41324 6.26629 2.48221C6.19732 2.55118 6.16283 2.63286 6.16283 2.72724V11.3087C6.16283 11.4031 6.19732 11.4848 6.26629 11.5538C6.33527 11.6227 6.41695 11.6572 6.51133 11.6572Z" fill="#4988CE"/>
</svg>
