<svg width="24" height="24" viewBox="0 0 24 24" fill="none" xmlns="http://www.w3.org/2000/svg">
<path d="M8.97368 23.5C7.9463 23.5 7.08419 23.1516 6.38735 22.4548C5.69053 21.7579 5.34212 20.8958 5.34212 19.8684C5.34212 19.5937 5.346 19.3691 5.35377 19.1945C5.36152 19.0199 5.31573 18.8829 5.2164 18.7836C5.11708 18.6843 4.98012 18.6346 4.80552 18.6346H4.13156C3.10418 18.6346 2.24207 18.2901 1.54523 17.601C0.848411 16.9119 0.5 16.0537 0.5 15.0263C0.5 13.9989 0.848411 13.1368 1.54523 12.44C2.24207 11.7432 3.10418 11.3948 4.13156 11.3948C4.52575 11.3948 4.89123 11.4456 5.228 11.5473C5.56476 11.6489 5.86973 11.8014 6.14288 12.0047C6.25153 12.0901 6.37764 12.1327 6.5212 12.1327C6.66477 12.1327 6.787 12.0823 6.88787 11.9814L11.9348 6.93442C12.0357 6.83354 12.0939 6.7055 12.1095 6.55029C12.125 6.39508 12.0901 6.25928 12.0047 6.14288C11.8091 5.86198 11.6586 5.55508 11.5531 5.22219C11.4475 4.88929 11.3948 4.52575 11.3948 4.13156C11.3948 3.10418 11.7432 2.24207 12.44 1.54523C13.1368 0.848411 13.9989 0.5 15.0263 0.5C16.0537 0.5 16.9158 0.848411 17.6126 1.54523C18.3095 2.24207 18.6579 3.10418 18.6579 4.13156C18.6579 4.40627 18.654 4.63092 18.6462 4.80552C18.6385 4.98012 18.6843 5.11708 18.7836 5.2164C18.8829 5.31573 19.0199 5.36152 19.1945 5.35377C19.3691 5.346 19.5937 5.34212 19.8684 5.34212C20.8958 5.34212 21.7579 5.69053 22.4548 6.38735C23.1516 7.08419 23.5 7.9463 23.5 8.97368C23.5 10.0011 23.1516 10.8632 22.4548 11.56C21.7579 12.2568 20.8958 12.6052 19.8684 12.6052C19.4743 12.6052 19.1107 12.5525 18.7778 12.4469C18.4449 12.3414 18.138 12.1909 17.8571 11.9953C17.7407 11.9177 17.6088 11.8847 17.4613 11.8964C17.3139 11.908 17.1897 11.9643 17.0889 12.0652L12.0652 17.0889C11.9643 17.1897 11.9061 17.3081 11.8905 17.4439C11.875 17.5797 11.9022 17.7097 11.972 17.8338C12.1598 18.1147 12.3123 18.4255 12.4295 18.7662C12.5466 19.1068 12.6052 19.4743 12.6052 19.8684C12.6052 20.8958 12.2568 21.7579 11.56 22.4548C10.8632 23.1516 10.0011 23.5 8.97368 23.5ZM8.97368 21.6842C9.49824 21.6842 9.93201 21.5127 10.275 21.1698C10.618 20.8268 10.7895 20.393 10.7895 19.8684C10.7895 19.6869 10.7643 19.5103 10.7138 19.3388C10.6634 19.1673 10.5877 19.0009 10.4868 18.8395C10.1594 18.363 10.022 17.8455 10.0748 17.2867C10.1276 16.728 10.3658 16.2369 10.7895 15.8132L15.8132 10.7895C16.2369 10.3658 16.728 10.1295 17.2867 10.0806C17.8455 10.0317 18.363 10.1671 18.8395 10.4868C19.0009 10.5877 19.1673 10.6634 19.3388 10.7138C19.5103 10.7643 19.6869 10.7895 19.8684 10.7895C20.393 10.7895 20.8268 10.618 21.1698 10.275C21.5127 9.93201 21.6842 9.49824 21.6842 8.97368C21.6842 8.44911 21.5127 8.01534 21.1698 7.67236C20.8268 7.32937 20.393 7.15788 19.8684 7.15788C19.2244 7.15788 18.7398 7.11675 18.4147 7.0345C18.0895 6.95224 17.7873 6.77144 17.5079 6.49209C17.2286 6.21274 17.0478 5.91049 16.9655 5.58534C16.8832 5.26022 16.8421 4.77562 16.8421 4.13156C16.8421 3.607 16.6706 3.17322 16.3276 2.83024C15.9847 2.48726 15.5509 2.31576 15.0263 2.31576C14.5018 2.31576 14.068 2.48726 13.725 2.83024C13.382 3.17322 13.2105 3.607 13.2105 4.13156C13.2105 4.33797 13.2326 4.52071 13.2769 4.67978C13.3211 4.83886 13.3999 4.9991 13.5132 5.16051C13.8406 5.63695 13.978 6.15453 13.9252 6.71325C13.8724 7.27195 13.6342 7.76315 13.2105 8.18683L8.18683 13.2105C7.76315 13.6342 7.27195 13.8705 6.71325 13.9194C6.15453 13.9683 5.63695 13.8329 5.16051 13.5132C4.9991 13.4123 4.83266 13.3366 4.66116 13.2862C4.48967 13.2357 4.31314 13.2105 4.13156 13.2105C3.607 13.2105 3.17322 13.382 2.83024 13.725C2.48726 14.068 2.31576 14.5018 2.31576 15.0263C2.31576 15.5509 2.48726 15.9808 2.83024 16.316C3.17322 16.6512 3.607 16.8188 4.13156 16.8188C4.77562 16.8188 5.26021 16.8638 5.58534 16.9538C5.91049 17.0439 6.21274 17.2286 6.49209 17.5079C6.77144 17.7873 6.95224 18.0934 7.0345 18.4263C7.11675 18.7592 7.15788 19.2477 7.15788 19.8917C7.15788 20.4163 7.32937 20.8462 7.67236 21.1814C8.01534 21.5166 8.44911 21.6842 8.97368 21.6842Z" fill="#4988CE"/>
</svg>
