<svg width="24" height="16" viewBox="0 0 24 16" fill="none" xmlns="http://www.w3.org/2000/svg">
<path d="M5.97616 12.7054C6.88325 12.7054 7.76577 12.8082 8.62371 13.0139C9.48165 13.2197 10.3333 13.5423 11.1786 13.9818V3.21468C10.4091 2.7134 9.57644 2.33744 8.68058 2.0868C7.78473 1.83615 6.88325 1.71083 5.97616 1.71083C5.31901 1.71083 4.70504 1.76242 4.13426 1.86561C3.56347 1.96882 2.97689 2.13767 2.37451 2.37216C2.29025 2.40026 2.23056 2.44063 2.19546 2.4933C2.16036 2.54596 2.14281 2.60388 2.14281 2.66706V13.0255C2.14281 13.1238 2.17791 13.1958 2.24812 13.2414C2.31834 13.287 2.39558 13.2923 2.47984 13.2572C2.99937 13.0803 3.54768 12.9441 4.12479 12.8486C4.70189 12.7531 5.31901 12.7054 5.97616 12.7054ZM12.8214 13.9818C13.6667 13.5423 14.5183 13.2197 15.3763 13.0139C16.2342 12.8082 17.1167 12.7054 18.0238 12.7054C18.681 12.7054 19.2981 12.7531 19.8752 12.8486C20.4523 12.9441 21.0006 13.0803 21.5201 13.2572C21.6044 13.2923 21.6816 13.287 21.7519 13.2414C21.8221 13.1958 21.8572 13.1238 21.8572 13.0255V2.66706C21.8572 2.60388 21.8396 2.54771 21.8045 2.49855C21.7694 2.4494 21.7097 2.40727 21.6255 2.37216C21.0231 2.13767 20.4365 1.96882 19.8657 1.86561C19.2949 1.76242 18.681 1.71083 18.0238 1.71083C17.1167 1.71083 16.2152 1.83615 15.3194 2.0868C14.4235 2.33744 13.5909 2.7134 12.8214 3.21468V13.9818ZM12 15.9321C11.7866 15.9321 11.5868 15.9054 11.4008 15.852C11.2147 15.7987 11.0389 15.7278 10.8732 15.6393C10.1191 15.2125 9.33034 14.8905 8.50679 14.6736C7.68326 14.4567 6.83972 14.3482 5.97616 14.3482C5.30778 14.3482 4.65135 14.4223 4.00686 14.5704C3.36234 14.7185 2.741 14.9365 2.14284 15.2244C1.75249 15.4041 1.38109 15.3757 1.02865 15.1391C0.676215 14.9025 0.5 14.5672 0.5 14.1333V2.24161C0.5 2.00571 0.560722 1.78421 0.682166 1.5771C0.803628 1.36999 0.978803 1.2208 1.20769 1.12953C1.94908 0.768665 2.72171 0.501526 3.52558 0.328113C4.32945 0.1547 5.14631 0.0679932 5.97616 0.0679932C7.04192 0.0679932 8.0831 0.213678 9.0997 0.505049C10.1163 0.796401 11.0831 1.22642 12 1.79511C12.9169 1.22642 13.8837 0.796401 14.9003 0.505049C15.9169 0.213678 16.9581 0.0679932 18.0238 0.0679932C18.8537 0.0679932 19.6705 0.1547 20.4744 0.328113C21.2783 0.501526 22.0509 0.768665 22.7923 1.12953C23.0212 1.2208 23.1963 1.36999 23.3178 1.5771C23.4393 1.78421 23.5 2.00571 23.5 2.24161V14.1333C23.5 14.5672 23.3168 14.8989 22.9503 15.1285C22.5838 15.3581 22.1983 15.383 21.7939 15.2033C21.2028 14.9225 20.5902 14.7098 19.9563 14.5651C19.3223 14.4205 18.6782 14.3482 18.0238 14.3482C17.1603 14.3482 16.3167 14.4567 15.4932 14.6736C14.6696 14.8905 13.8808 15.2125 13.1268 15.6393C12.9611 15.7278 12.7852 15.7987 12.5992 15.852C12.4131 15.9054 12.2134 15.9321 12 15.9321ZM14.1273 4.86597C14.1273 4.74382 14.1708 4.61885 14.2579 4.49107C14.3449 4.3633 14.4439 4.27554 14.5548 4.22781C15.0982 4.01014 15.6574 3.84515 16.2325 3.73284C16.8075 3.6205 17.4046 3.56433 18.0238 3.56433C18.3819 3.56433 18.7283 3.58539 19.0632 3.6275C19.3981 3.66963 19.7355 3.72721 20.0753 3.80022C20.2045 3.8297 20.3161 3.89991 20.4102 4.01084C20.5042 4.12177 20.5513 4.25095 20.5513 4.39839C20.5513 4.64551 20.4737 4.82629 20.3185 4.94073C20.1634 5.05516 19.9622 5.08289 19.7151 5.02391C19.4526 4.96915 19.1798 4.92984 18.8969 4.90598C18.6139 4.8821 18.3229 4.87016 18.0238 4.87016C17.493 4.87016 16.9732 4.92107 16.4641 5.02287C15.9551 5.12467 15.4696 5.26263 15.0077 5.43673C14.7493 5.53644 14.538 5.53082 14.3737 5.41989C14.2094 5.30896 14.1273 5.12432 14.1273 4.86597ZM14.1273 10.8477C14.1273 10.7255 14.1708 10.5988 14.2579 10.4675C14.3449 10.3362 14.4439 10.2467 14.5548 10.199C15.0842 9.98131 15.6434 9.81808 16.2325 9.70927C16.8215 9.60044 17.4186 9.54603 18.0238 9.54603C18.3819 9.54603 18.7283 9.56709 19.0632 9.60922C19.3981 9.65133 19.7355 9.7089 20.0753 9.78191C20.2045 9.81141 20.3161 9.88163 20.4102 9.99256C20.5042 10.1035 20.5513 10.2326 20.5513 10.3801C20.5513 10.6272 20.4737 10.808 20.3185 10.9224C20.1634 11.0369 19.9622 11.0646 19.7151 11.0056C19.4526 10.9509 19.1798 10.9115 18.8969 10.8877C18.6139 10.8638 18.3229 10.8519 18.0238 10.8519C17.5001 10.8519 16.9854 10.9017 16.4799 11.0014C15.9744 11.1011 15.4907 11.2415 15.0287 11.4227C14.7704 11.5294 14.5555 11.5266 14.3842 11.4142C14.2129 11.3019 14.1273 11.113 14.1273 10.8477ZM14.1273 7.86735C14.1273 7.74519 14.1708 7.62023 14.2579 7.49245C14.3449 7.36467 14.4439 7.27691 14.5548 7.22918C15.0982 7.01154 15.6574 6.84655 16.2325 6.73421C16.8075 6.62188 17.4046 6.56571 18.0238 6.56571C18.3819 6.56571 18.7283 6.58677 19.0632 6.6289C19.3981 6.67102 19.7355 6.72858 20.0753 6.8016C20.2045 6.83109 20.3161 6.9013 20.4102 7.01221C20.5042 7.12314 20.5513 7.25232 20.5513 7.39976C20.5513 7.64689 20.4737 7.82766 20.3185 7.9421C20.1634 8.05653 19.9622 8.08427 19.7151 8.02531C19.4526 7.97055 19.1798 7.93123 18.8969 7.90735C18.6139 7.88348 18.3229 7.87154 18.0238 7.87154C17.493 7.87154 16.9732 7.92244 16.4641 8.02424C15.9551 8.12604 15.4696 8.26401 15.0077 8.43813C14.7493 8.53782 14.538 8.5322 14.3737 8.42127C14.2094 8.31036 14.1273 8.12572 14.1273 7.86735Z" fill="#4988CE"/>
</svg>
