<svg width="24" height="22" viewBox="0 0 24 22" fill="none" xmlns="http://www.w3.org/2000/svg">
<path d="M12 17.1923C13.389 17.1923 14.5665 16.7093 15.5326 15.7432C16.4987 14.7771 16.9818 13.5996 16.9818 12.2106C16.9818 10.8216 16.4987 9.64403 15.5326 8.67794C14.5665 7.71186 13.389 7.22882 12 7.22882C10.611 7.22882 9.43345 7.71186 8.46737 8.67794C7.50129 9.64403 7.01825 10.8216 7.01825 12.2106C7.01825 13.5996 7.50129 14.7771 8.46737 15.7432C9.43345 16.7093 10.611 17.1923 12 17.1923ZM12 15.3766C11.1061 15.3766 10.3549 15.0724 9.74654 14.464C9.13817 13.8557 8.83398 13.1045 8.83398 12.2106C8.83398 11.3166 9.13817 10.5655 9.74654 9.95711C10.3549 9.34874 11.1061 9.04455 12 9.04455C12.8939 9.04455 13.6451 9.34874 14.2535 9.95711C14.8618 10.5655 15.166 11.3166 15.166 12.2106C15.166 13.1045 14.8618 13.8557 14.2535 14.464C13.6451 15.0724 12.8939 15.3766 12 15.3766ZM2.68827 21.2895C2.0768 21.2895 1.55921 21.0777 1.13553 20.654C0.711843 20.2303 0.5 19.7127 0.5 19.1012V5.31991C0.5 4.70843 0.711843 4.19084 1.13553 3.76716C1.55921 3.34347 2.0768 3.13163 2.68827 3.13163H6.38502L7.96803 1.41595C8.16668 1.19712 8.40685 1.02486 8.68854 0.899142C8.97021 0.773429 9.26701 0.710571 9.57894 0.710571H14.4211C14.733 0.710571 15.0298 0.773429 15.3115 0.899142C15.5932 1.02486 15.8333 1.19712 16.032 1.41595L17.615 3.13163H21.3117C21.9232 3.13163 22.4408 3.34347 22.8645 3.76716C23.2882 4.19084 23.5 4.70843 23.5 5.31991V19.1012C23.5 19.7127 23.2882 20.2303 22.8645 20.654C22.4408 21.0777 21.9232 21.2895 21.3117 21.2895H2.68827ZM2.68827 19.4737H21.3117C21.4204 19.4737 21.5096 19.4388 21.5795 19.369C21.6493 19.2991 21.6842 19.2099 21.6842 19.1012V5.31991C21.6842 5.21126 21.6493 5.12201 21.5795 5.05217C21.5096 4.98232 21.4204 4.94739 21.3117 4.94739H16.8049L14.584 2.52634H9.41597L7.19514 4.94739H2.68827C2.57963 4.94739 2.49038 4.98232 2.42054 5.05217C2.35069 5.12201 2.31576 5.21126 2.31576 5.31991V19.1012C2.31576 19.2099 2.35069 19.2991 2.42054 19.369C2.49038 19.4388 2.57963 19.4737 2.68827 19.4737Z" fill="#4988CE"/>
</svg>
