<svg width="24" height="24" viewBox="0 0 24 24" fill="none" xmlns="http://www.w3.org/2000/svg">
<path d="M12 13.2105C11.657 13.2105 11.3695 13.0945 11.1375 12.8625C10.9055 12.6305 10.7895 12.343 10.7895 12C10.7895 11.657 10.9055 11.3695 11.1375 11.1375C11.3695 10.9055 11.657 10.7895 12 10.7895C12.343 10.7895 12.6305 10.9055 12.8625 11.1375C13.0945 11.3695 13.2105 11.657 13.2105 12C13.2105 12.343 13.0945 12.6305 12.8625 12.8625C12.6305 13.0945 12.343 13.2105 12 13.2105ZM12.002 23.5C10.4115 23.5 8.91643 23.1982 7.51689 22.5945C6.11734 21.9909 4.89993 21.1716 3.86467 20.1368C2.82938 19.102 2.00978 17.8852 1.40587 16.4862C0.801957 15.0873 0.5 13.5926 0.5 12.002C0.5 10.4115 0.801826 8.91643 1.40548 7.51689C2.00913 6.11734 2.82835 4.89993 3.86315 3.86467C4.89797 2.82938 6.11485 2.00978 7.51378 1.40587C8.91269 0.801958 10.4074 0.5 11.998 0.5C13.5885 0.5 15.0836 0.801827 16.4831 1.40548C17.8827 2.00913 19.1001 2.82835 20.1353 3.86315C21.1706 4.89797 21.9902 6.11485 22.5941 7.51378C23.198 8.91269 23.5 10.4074 23.5 11.998C23.5 13.5885 23.1982 15.0836 22.5945 16.4831C21.9909 17.8827 21.1716 19.1001 20.1368 20.1353C19.102 21.1706 17.8852 21.9902 16.4862 22.5941C15.0873 23.198 13.5926 23.5 12.002 23.5ZM12 21.6842C14.7035 21.6842 16.9934 20.7461 18.8698 18.8698C20.7461 16.9934 21.6842 14.7035 21.6842 12C21.6842 9.29648 20.7461 7.00657 18.8698 5.13025C16.9934 3.25392 14.7035 2.31576 12 2.31576C9.29648 2.31576 7.00657 3.25392 5.13024 5.13025C3.25392 7.00657 2.31576 9.29648 2.31576 12C2.31576 14.7035 3.25392 16.9934 5.13024 18.8698C7.00657 20.7461 9.29648 21.6842 12 21.6842ZM6.974 17.6429L13.7715 14.2534C13.8771 14.2007 13.9706 14.1335 14.0521 14.0521C14.1335 13.9706 14.2007 13.8771 14.2534 13.7715L17.6429 6.974C17.7515 6.77225 17.7279 6.59378 17.5719 6.43859C17.4159 6.2834 17.2339 6.25624 17.026 6.35712L10.2284 9.74657C10.1229 9.79935 10.0294 9.86647 9.94794 9.94794C9.86647 10.0294 9.79935 10.1229 9.74657 10.2284L6.35712 17.026C6.24847 17.2355 6.27174 17.4179 6.42693 17.5731C6.58214 17.7283 6.7645 17.7515 6.974 17.6429Z" fill="#4988CE"/>
</svg>
