<svg width="24" height="20" viewBox="0 0 24 20" fill="none" xmlns="http://www.w3.org/2000/svg">
<path d="M0.5 18.5374V17.0842C0.5 16.5419 0.641931 16.0433 0.925794 15.5886C1.20968 15.1338 1.60583 14.7793 2.11425 14.5251C3.02942 14.0619 4.05333 13.6792 5.18599 13.3769C6.31865 13.0747 7.51063 12.9236 8.76191 12.9236C10.0132 12.9236 11.2052 13.0747 12.3379 13.3769C13.4705 13.6792 14.4944 14.0619 15.4096 14.5251C15.918 14.7793 16.3142 15.1338 16.598 15.5886C16.8819 16.0433 17.0238 16.5419 17.0238 17.0842V18.5374C17.0238 18.8213 16.9289 19.0582 16.7389 19.2481C16.549 19.4381 16.312 19.5331 16.0282 19.5331H1.49565C1.2118 19.5331 0.974898 19.4381 0.784928 19.2481C0.594976 19.0582 0.5 18.8213 0.5 18.5374ZM2.15234 17.8807H15.3715V17.0842C15.3715 16.8328 15.3033 16.6174 15.167 16.4381C15.0308 16.2587 14.8588 16.1125 14.6512 15.9995C13.9761 15.6549 13.1199 15.3315 12.0826 15.0293C11.0452 14.727 9.93836 14.5759 8.76191 14.5759C7.58548 14.5759 6.4786 14.727 5.44126 15.0293C4.40392 15.3315 3.54772 15.6549 2.87264 15.9995C2.66503 16.1125 2.49308 16.2587 2.35679 16.4381C2.22049 16.6174 2.15234 16.8328 2.15234 17.0842V17.8807ZM8.76191 11.144C7.68435 11.144 6.77236 10.7708 6.02596 10.0244C5.27957 9.27804 4.90638 8.34487 4.90638 7.22492H4.65216C4.50811 7.22492 4.39089 7.17972 4.3005 7.08934C4.21012 6.99895 4.16492 6.88173 4.16492 6.73768C4.16492 6.59363 4.21012 6.47641 4.3005 6.38602C4.39089 6.29564 4.50811 6.25044 4.65216 6.25044H4.90638C4.9205 5.55842 5.08008 4.93314 5.38513 4.37459C5.69018 3.81603 6.12375 3.33691 6.68584 2.93723V3.98375C6.68584 4.1278 6.73104 4.24502 6.82142 4.3354C6.91181 4.42579 7.02903 4.47098 7.17308 4.47098C7.31713 4.47098 7.43435 4.42579 7.52473 4.3354C7.61512 4.24502 7.66031 4.1278 7.66031 3.98375V2.51777C7.8185 2.46269 7.99116 2.41785 8.17828 2.38324C8.36541 2.34865 8.55995 2.33135 8.76191 2.33135C8.96387 2.33135 9.15842 2.34865 9.34556 2.38324C9.53269 2.41785 9.70533 2.46269 9.8635 2.51777V3.98375C9.8635 4.1278 9.90871 4.24502 9.99911 4.3354C10.0895 4.42579 10.2067 4.47098 10.3508 4.47098C10.4948 4.47098 10.612 4.42579 10.7024 4.3354C10.7928 4.24502 10.838 4.1278 10.838 3.98375V2.93723C11.4071 3.33691 11.8425 3.81603 12.144 4.37459C12.4455 4.93314 12.6033 5.55842 12.6175 6.25044H12.8717C13.0157 6.25044 13.133 6.29564 13.2233 6.38602C13.3137 6.47641 13.3589 6.59363 13.3589 6.73768C13.3589 6.88173 13.3137 6.99895 13.2233 7.08934C13.133 7.17972 13.0157 7.22492 12.8717 7.22492H12.6175C12.6175 8.34487 12.2443 9.27804 11.4979 10.0244C10.7515 10.7708 9.83949 11.144 8.76191 11.144ZM8.76191 9.49167C9.38192 9.49167 9.90413 9.27947 10.3285 8.85508C10.7529 8.43068 10.9651 7.90847 10.9651 7.28848H6.55872C6.55872 7.90847 6.77092 8.43068 7.19533 8.85508C7.61972 9.27947 8.14191 9.49167 8.76191 9.49167ZM16.9836 12.8748L16.9222 12.4786C16.7979 12.4419 16.6729 12.3918 16.5472 12.3282C16.4215 12.2647 16.3093 12.1835 16.2104 12.0846L15.8481 12.2265C15.7337 12.2633 15.6239 12.265 15.5187 12.2319C15.4135 12.1987 15.3277 12.1249 15.2613 12.0105L15.1829 11.8706C15.1166 11.7676 15.0954 11.6588 15.1194 11.5444C15.1434 11.43 15.2013 11.334 15.2931 11.2563L15.6003 11.0085C15.5862 10.9393 15.5791 10.8736 15.5791 10.8114V10.4227C15.5791 10.3641 15.5862 10.2966 15.6003 10.2204L15.2931 9.97251C15.2013 9.89483 15.1434 9.7988 15.1194 9.68442C15.0954 9.57002 15.1166 9.46127 15.1829 9.35818L15.2613 9.21836C15.3277 9.10396 15.4135 9.03016 15.5187 8.99697C15.6239 8.96379 15.7337 8.96556 15.8481 9.00228L16.2104 9.14423C16.298 9.05665 16.4074 8.97826 16.5388 8.90906C16.6701 8.83986 16.7979 8.7869 16.9222 8.75018L16.9836 8.35402C17.0133 8.23964 17.0705 8.1429 17.1552 8.06381C17.24 7.98471 17.3395 7.94517 17.4539 7.94517H17.6107C17.7251 7.94517 17.8247 7.98471 17.9094 8.06381C17.9941 8.1429 18.0513 8.23964 18.081 8.35402L18.1424 8.75018C18.2667 8.7869 18.3945 8.83986 18.5259 8.90906C18.6572 8.97826 18.7667 9.05665 18.8542 9.14423L19.2165 9.00228C19.3309 8.96556 19.4407 8.96379 19.5459 8.99697C19.6511 9.03016 19.7369 9.10396 19.8033 9.21836L19.8817 9.35818C19.948 9.46127 19.9692 9.57002 19.9452 9.68442C19.9212 9.7988 19.8633 9.89483 19.7715 9.97251L19.4643 10.2204C19.4785 10.2966 19.4855 10.3641 19.4855 10.4227V10.8114C19.4855 10.8736 19.4785 10.9393 19.4643 11.0085L19.7715 11.2563C19.8633 11.334 19.9212 11.43 19.9452 11.5444C19.9692 11.6588 19.948 11.7676 19.8817 11.8706L19.8033 12.0105C19.7369 12.1249 19.6511 12.1987 19.5459 12.2319C19.4407 12.265 19.3309 12.2633 19.2165 12.2265L18.8542 12.0846C18.7554 12.1835 18.6431 12.2647 18.5174 12.3282C18.3917 12.3918 18.2667 12.4419 18.1424 12.4786L18.081 12.8748C18.0513 12.9892 17.9941 13.0859 17.9094 13.165C17.8247 13.2441 17.7251 13.2837 17.6107 13.2837H17.4539C17.3395 13.2837 17.24 13.2441 17.1552 13.165C17.0705 13.0859 17.0133 12.9892 16.9836 12.8748ZM17.5323 11.5254C17.7809 11.5254 17.9948 11.4357 18.1742 11.2563C18.3536 11.077 18.4433 10.863 18.4433 10.6144C18.4433 10.3658 18.3536 10.1519 18.1742 9.97251C17.9948 9.79316 17.7809 9.70348 17.5323 9.70348C17.2837 9.70348 17.0698 9.79316 16.8904 9.97251C16.7111 10.1519 16.6214 10.3658 16.6214 10.6144C16.6214 10.863 16.7111 11.077 16.8904 11.2563C17.0698 11.4357 17.2837 11.5254 17.5323 11.5254ZM19.5639 7.03208L19.4856 6.53427C19.2991 6.48624 19.1141 6.41032 18.9305 6.30651C18.7469 6.20271 18.5929 6.07807 18.4687 5.93261L17.9539 6.12539C17.8169 6.17342 17.6817 6.17236 17.5482 6.12222C17.4147 6.07208 17.3092 5.98416 17.2315 5.85847L17.1192 5.66781C17.0416 5.54212 17.0147 5.40795 17.0387 5.26531C17.0627 5.12268 17.1376 5.00123 17.2633 4.90096L17.6891 4.5514C17.6524 4.45255 17.6305 4.36145 17.6234 4.27812C17.6164 4.1948 17.6128 4.10371 17.6128 4.00484C17.6128 3.90597 17.6164 3.81488 17.6234 3.73156C17.6305 3.64823 17.6524 3.55713 17.6891 3.45829L17.2633 3.10872C17.1376 3.00846 17.0627 2.88701 17.0387 2.74437C17.0147 2.60173 17.0416 2.46757 17.1192 2.34187L17.2315 2.15121C17.3092 2.02552 17.4147 1.93761 17.5482 1.88747C17.6817 1.83733 17.8169 1.83627 17.9539 1.8843L18.4687 2.07708C18.5929 1.93161 18.7469 1.80698 18.9305 1.70317C19.1141 1.59936 19.2991 1.52344 19.4856 1.47541L19.5639 0.977603C19.5936 0.82931 19.6649 0.707143 19.7779 0.611103C19.8909 0.515062 20.0215 0.467041 20.1698 0.467041H20.3604C20.5087 0.467041 20.6394 0.515062 20.7524 0.611103C20.8653 0.707143 20.9366 0.82931 20.9663 0.977603L21.0447 1.47541C21.2311 1.52344 21.4161 1.59936 21.5997 1.70317C21.7833 1.80698 21.9373 1.93161 22.0615 2.07708L22.5763 1.8843C22.7133 1.83627 22.8486 1.83733 22.982 1.88747C23.1155 1.93761 23.221 2.02552 23.2987 2.15121L23.411 2.34187C23.4887 2.46757 23.5155 2.60173 23.4915 2.74437C23.4675 2.88701 23.3926 3.00846 23.2669 3.10872L22.8411 3.45829C22.8778 3.55713 22.8997 3.64823 22.9068 3.73156C22.9139 3.81488 22.9174 3.90597 22.9174 4.00484C22.9174 4.10371 22.9139 4.1948 22.9068 4.27812C22.8997 4.36145 22.8778 4.45255 22.8411 4.5514L23.2669 4.90096C23.3926 5.00123 23.4675 5.12268 23.4915 5.26531C23.5155 5.40795 23.4887 5.54212 23.411 5.66781L23.2987 5.85847C23.221 5.98416 23.1155 6.07208 22.982 6.12222C22.8486 6.17236 22.7133 6.17342 22.5763 6.12539L22.0615 5.93261C21.9373 6.07807 21.7833 6.20271 21.5997 6.30651C21.4161 6.41032 21.2311 6.48624 21.0447 6.53427L20.9663 7.03208C20.9366 7.18037 20.8653 7.30254 20.7524 7.39858C20.6394 7.49462 20.5087 7.54264 20.3604 7.54264H20.1698C20.0215 7.54264 19.8909 7.49462 19.7779 7.39858C19.6649 7.30254 19.5936 7.18037 19.5639 7.03208ZM20.2651 5.4454C20.6719 5.4454 21.0136 5.30699 21.2905 5.03018C21.5673 4.75337 21.7057 4.41159 21.7057 4.00484C21.7057 3.5981 21.5673 3.25632 21.2905 2.9795C21.0136 2.70269 20.6719 2.56429 20.2651 2.56429C19.8584 2.56429 19.5166 2.70269 19.2398 2.9795C18.963 3.25632 18.8246 3.5981 18.8246 4.00484C18.8246 4.41159 18.963 4.75337 19.2398 5.03018C19.5166 5.30699 19.8584 5.4454 20.2651 5.4454Z" fill="#4988CE"/>
</svg>
