<svg width="24" height="24" viewBox="0 0 24 24" fill="none" xmlns="http://www.w3.org/2000/svg">
<path d="M1.6035 21.5238H14.7788C15.0591 21.5238 15.2939 21.6184 15.4831 21.8075C15.6723 21.9967 15.7669 22.2315 15.7669 22.5119C15.7669 22.7923 15.6723 23.0271 15.4831 23.2162C15.2939 23.4054 15.0591 23.5 14.7788 23.5H1.6035C1.32311 23.5 1.08832 23.4054 0.899149 23.2162C0.709974 23.0271 0.615387 22.7923 0.615387 22.5119C0.615387 22.2315 0.709974 21.9967 0.899149 21.8075C1.08832 21.6184 1.32311 21.5238 1.6035 21.5238ZM6.57469 15.0171L2.94135 11.3838C2.48698 10.9295 2.2543 10.3725 2.24332 9.71286C2.23234 9.05326 2.45404 8.49205 2.90841 8.02922L3.58489 7.34009L10.6387 14.328L9.94956 15.0171C9.49517 15.4715 8.93268 15.6987 8.26211 15.6987C7.59153 15.6987 7.02906 15.4715 6.57469 15.0171ZM16.0709 8.89576L9.08302 1.84196L9.77216 1.16548C10.235 0.711105 10.7962 0.489409 11.4558 0.500389C12.1154 0.511368 12.6724 0.744043 13.1268 1.19841L16.7601 4.83175C17.2145 5.28612 17.4416 5.8486 17.4416 6.51917C17.4416 7.18975 17.2145 7.75223 16.7601 8.20663L16.0709 8.89576ZM21.7161 21.3616L5.67267 5.31818L7.06112 3.92974L23.1045 19.9732C23.2869 20.1556 23.3802 20.3849 23.3845 20.661C23.3887 20.9372 23.2954 21.1707 23.1045 21.3616C22.9136 21.5524 22.6822 21.6479 22.4103 21.6479C22.1383 21.6479 21.9069 21.5524 21.7161 21.3616Z" fill="#4988CE"/>
</svg>
