<svg width="22" height="24" viewBox="0 0 22 24" fill="none" xmlns="http://www.w3.org/2000/svg">
<path d="M11 23.5C9.47881 23.5 8.01962 23.2407 6.62243 22.7221C5.22527 22.2034 3.93954 21.4706 2.76526 20.5235C2.52763 20.3275 2.39321 20.0834 2.36198 19.7911C2.33075 19.4988 2.42007 19.2478 2.62996 19.0379C2.83983 18.828 3.08526 18.7218 3.36627 18.7192C3.64725 18.7166 3.90656 18.8133 4.14418 19.0093C4.41132 19.2539 4.69406 19.4742 4.99241 19.6702C5.29075 19.8662 5.60211 20.0422 5.92648 20.1983V15.7466H3.29865C2.61524 15.7466 2.03676 15.5055 1.56323 15.0233C1.0897 14.5411 0.852936 13.9496 0.852936 13.2489V5.32636C0.852936 3.99423 1.31562 2.85681 2.24099 1.9141C3.16638 0.971368 4.28212 0.5 5.58821 0.5H9.23071C9.57936 0.5 9.87034 0.616659 10.1036 0.849975C10.3369 1.08327 10.4536 1.37423 10.4536 1.72286V7.19968H18.7013C19.3847 7.19968 19.9632 7.44296 20.4367 7.9295C20.9103 8.41604 21.147 9.00535 21.147 9.69742V13.2489C21.147 13.9496 20.9103 14.5411 20.4367 15.0233C19.9632 15.5055 19.3847 15.7466 18.7013 15.7466H16.0735V20.1983C16.4118 20.0283 16.7322 19.8432 17.0349 19.6429C17.3376 19.4425 17.6294 19.22 17.9104 18.9754C18.1342 18.7881 18.3844 18.6992 18.661 18.7088C18.9377 18.7183 19.174 18.8211 19.37 19.0171C19.5799 19.227 19.677 19.4702 19.6614 19.7469C19.6458 20.0235 19.5261 20.2599 19.3024 20.4559C18.1194 21.4168 16.8224 22.1644 15.4114 22.6986C14.0003 23.2329 12.5299 23.5 11 23.5ZM11 21.4706C11.5117 21.4706 12.0212 21.4316 12.5286 21.3535C13.0359 21.2755 13.5411 21.1671 14.0441 21.0283V15.7466H7.95583V21.0283C8.45885 21.1671 8.96404 21.2755 9.4714 21.3535C9.97875 21.4316 10.4883 21.4706 11 21.4706ZM3.29865 13.7172H18.7013C18.8227 13.7172 18.9225 13.676 19.0006 13.5936C19.0786 13.5112 19.1177 13.3963 19.1177 13.2489V9.69742C19.1177 9.55866 19.0786 9.4459 19.0006 9.35915C18.9225 9.27243 18.8227 9.22907 18.7013 9.22907H8.42418V2.52938H5.58821C4.84409 2.52938 4.20708 2.80301 3.67717 3.35025C3.14727 3.89752 2.88232 4.55622 2.88232 5.32636V13.2489C2.88232 13.3963 2.92135 13.5112 2.99942 13.5936C3.07748 13.676 3.17723 13.7172 3.29865 13.7172Z" fill="#4988CE"/>
</svg>
