<svg width="24" height="16" viewBox="0 0 24 16" fill="none" xmlns="http://www.w3.org/2000/svg">
<path d="M20.5238 13.527C20.9705 13.7627 21.3473 13.7082 21.6543 13.3636C21.9612 13.019 22.0037 12.6336 21.7817 12.2074L19.9853 8.84883L18.5341 12.4952L20.5238 13.527ZM15.0153 12.5322H16.7706L19.3563 6.13165C19.4646 5.85896 19.4718 5.63594 19.3779 5.4626C19.284 5.28925 19.1357 5.15873 18.9329 5.07104L16.7953 4.21599C16.5527 4.12143 16.3181 4.12211 16.0913 4.21802C15.8645 4.31394 15.7333 4.49003 15.6977 4.74628L15.0153 12.5322ZM7.20882 12.5322H8.96419L8.28178 4.70516C8.24615 4.46811 8.11837 4.30368 7.89845 4.21187C7.67852 4.12006 7.44044 4.12143 7.18419 4.21599L5.04657 5.07104C4.81497 5.16557 4.66972 5.30979 4.61081 5.50369C4.55188 5.69759 4.5697 5.92062 4.66425 6.17277L7.20882 12.5322ZM3.45569 13.527L5.44534 12.4952L4.01476 8.84883L2.19775 12.2485C1.96206 12.6815 2.00625 13.0584 2.33031 13.379C2.65439 13.6997 3.02952 13.749 3.45569 13.527ZM10.5674 12.5322H13.4121L14.2343 3.25406C14.2699 3.01153 14.2092 2.80495 14.0523 2.63433C13.8954 2.46373 13.6889 2.37843 13.4326 2.37843H10.5468C10.3427 2.37843 10.1518 2.45859 9.97437 2.61892C9.79693 2.77926 9.72054 2.97727 9.74519 3.21296L10.5674 12.5322ZM2.89379 15.2247C2.20986 15.2247 1.63991 14.9784 1.18396 14.4858C0.727986 13.9932 0.5 13.405 0.5 12.7213C0.5 12.5146 0.527745 12.3122 0.583234 12.1141C0.638723 11.9159 0.711001 11.7224 0.800069 11.5333L3.21318 6.92091C2.97065 6.25634 2.96072 5.59896 3.18339 4.94877C3.40605 4.29857 3.82843 3.84467 4.45052 3.58705L6.58814 2.732C6.86494 2.62239 7.14517 2.55833 7.42881 2.53982C7.71246 2.52133 7.97897 2.57306 8.22836 2.69502C8.38183 2.15787 8.66753 1.70362 9.08547 1.33228C9.50339 0.960939 9.9958 0.775269 10.5627 0.775269H13.4326C13.9958 0.775269 14.4881 0.955801 14.9094 1.31686C15.3308 1.67793 15.625 2.12361 15.7922 2.65392C16.021 2.53607 16.2773 2.49393 16.5609 2.52751C16.8446 2.56107 17.1214 2.62923 17.3913 2.732L19.529 3.58705C20.173 3.84467 20.6169 4.29685 20.8608 4.94361C21.1047 5.59038 21.0801 6.23167 20.7868 6.86747L23.1999 11.4798C23.2931 11.6552 23.3664 11.8353 23.4198 12.0202C23.4733 12.2051 23.5 12.3977 23.5 12.5979C23.5 13.331 23.2489 13.9521 22.7467 14.4612C22.2445 14.9702 21.6284 15.2247 20.8983 15.2247C20.7199 15.2247 20.5453 15.2042 20.3744 15.1631C20.2036 15.122 20.0328 15.0603 19.862 14.9781L18.1642 14.1354H5.78239L4.22438 14.9575C4.02022 15.0685 3.80441 15.1408 3.57695 15.1744C3.34949 15.208 3.12177 15.2247 2.89379 15.2247Z" fill="#4988CE"/>
</svg>
