<svg width="24" height="22" viewBox="0 0 24 22" fill="none" xmlns="http://www.w3.org/2000/svg">
<path d="M2.68827 21.5921C2.0768 21.5921 1.55921 21.3803 1.13553 20.9566C0.711843 20.5329 0.5 20.0153 0.5 19.4038V6.83303C0.5 6.22155 0.711843 5.70396 1.13553 5.28028C1.55921 4.85659 2.0768 4.64475 2.68827 4.64475H7.76318V2.5962C7.76318 1.98474 7.97502 1.46717 8.3987 1.04349C8.82239 0.619802 9.33997 0.407959 9.95145 0.407959H14.0485C14.66 0.407959 15.1776 0.619802 15.6013 1.04349C16.025 1.46717 16.2368 1.98474 16.2368 2.5962V4.64475H21.3117C21.9232 4.64475 22.4408 4.85659 22.8645 5.28028C23.2882 5.70396 23.5 6.22155 23.5 6.83303V19.4038C23.5 20.0153 23.2882 20.5329 22.8645 20.9566C22.4408 21.3803 21.9232 21.5921 21.3117 21.5921H2.68827ZM9.57894 4.64475H14.4211V2.5962C14.4211 2.50307 14.3823 2.41771 14.3047 2.34012C14.227 2.2625 14.1417 2.22369 14.0485 2.22369H9.95145C9.85832 2.22369 9.77295 2.2625 9.69533 2.34012C9.61774 2.41771 9.57894 2.50307 9.57894 2.5962V4.64475ZM21.6842 14.6316H15.0263V15.6558C15.0263 15.9678 14.9219 16.2281 14.7132 16.4369C14.5044 16.6456 14.2441 16.75 13.9322 16.75H10.0678C9.75591 16.75 9.49557 16.6456 9.28684 16.4369C9.07808 16.2281 8.97371 15.9678 8.97371 15.6558V14.6316H2.31576V19.4038C2.31576 19.497 2.35456 19.5823 2.43216 19.6599C2.50977 19.7375 2.59514 19.7763 2.68827 19.7763H21.3117C21.4049 19.7763 21.4902 19.7375 21.5678 19.6599C21.6454 19.5823 21.6842 19.497 21.6842 19.4038V14.6316ZM10.7895 14.9342H13.2105V12.5132H10.7895V14.9342ZM2.31576 12.8158H8.97371V11.7915C8.97371 11.4796 9.07808 11.2193 9.28684 11.0105C9.49557 10.8018 9.75591 10.6974 10.0678 10.6974H13.9322C14.2441 10.6974 14.5044 10.8018 14.7132 11.0105C14.9219 11.2193 15.0263 11.4796 15.0263 11.7915V12.8158H21.6842V6.83303C21.6842 6.7399 21.6454 6.65452 21.5678 6.57691C21.4902 6.49931 21.4049 6.46052 21.3117 6.46052H2.68827C2.59514 6.46052 2.50977 6.49931 2.43216 6.57691C2.35456 6.65452 2.31576 6.7399 2.31576 6.83303V12.8158Z" fill="#4988CE"/>
</svg>
