<svg width="22" height="24" viewBox="0 0 22 24" fill="none" xmlns="http://www.w3.org/2000/svg">
<path d="M5.40134 23.5V16.4347H3.25498C2.5482 16.4347 1.94743 16.1861 1.45269 15.689C0.957922 15.1919 0.710541 14.5883 0.710541 13.8781C0.710541 13.3632 0.850609 12.8877 1.13075 12.4516C1.41086 12.0155 1.78216 11.6919 2.24464 11.4809L10.0921 7.99363V6.84593C9.39686 6.64573 8.83117 6.26123 8.39507 5.69245C7.95898 5.12366 7.74093 4.47921 7.74093 3.75911C7.74093 2.85379 8.05725 2.08428 8.6899 1.45057C9.32254 0.816857 10.0908 0.5 10.9945 0.5C11.8983 0.5 12.6664 0.818157 13.2988 1.45447C13.9313 2.09077 14.2475 2.85898 14.2475 3.75911H12.4084C12.4084 3.35015 12.2735 3.00736 12.0035 2.73073C11.7336 2.45409 11.3991 2.31576 11 2.31576C10.5911 2.31576 10.2483 2.45409 9.97164 2.73073C9.69499 3.00736 9.55667 3.35015 9.55667 3.75911C9.55667 4.16805 9.69499 4.51084 9.97164 4.78748C10.2483 5.06413 10.5911 5.20245 11 5.20245C11.2572 5.20245 11.4729 5.28945 11.6469 5.46344C11.8209 5.63746 11.9079 5.85308 11.9079 6.11032V7.99363L19.7437 11.4809C20.2057 11.6936 20.5788 12.0172 20.863 12.4515C21.1473 12.8858 21.2895 13.3601 21.2895 13.8742C21.2895 14.5833 21.041 15.1873 20.5439 15.6863C20.0469 16.1852 19.4434 16.4347 18.7334 16.4347H16.5987V23.5H5.40134ZM3.25498 14.6189H5.40134V13.4433H16.5987V14.6189H18.7334C18.9445 14.6189 19.1206 14.5452 19.2619 14.3978C19.4031 14.2503 19.4737 14.0649 19.4737 13.8414C19.4737 13.694 19.4369 13.5597 19.3631 13.4387C19.2894 13.3176 19.1788 13.2253 19.0314 13.1616L11 9.58823L2.98025 13.1616C2.83283 13.2253 2.72031 13.3176 2.6427 13.4387C2.5651 13.5597 2.5263 13.694 2.5263 13.8414C2.5263 14.0649 2.59462 14.2503 2.73125 14.3978C2.86788 14.5452 3.04245 14.6189 3.25498 14.6189ZM7.21711 21.6842H14.7829V15.2591H7.21711V21.6842Z" fill="#4988CE"/>
</svg>
