<svg width="24" height="24" viewBox="0 0 24 24" fill="none" xmlns="http://www.w3.org/2000/svg">
<path d="M12 23.5C10.4108 23.5 8.91665 23.1978 7.51756 22.5933C6.11847 21.9888 4.90135 21.169 3.86621 20.1338C2.83105 19.0986 2.01122 17.8815 1.40675 16.4824C0.802249 15.0833 0.5 13.5892 0.5 12C0.5 10.4108 0.802249 8.91665 1.40675 7.51756C2.01122 6.11847 2.83105 4.90135 3.86621 3.86621C4.90135 2.83105 6.11847 2.01123 7.51756 1.40675C8.91665 0.80225 10.4108 0.5 12 0.5C13.5892 0.5 15.0833 0.80225 16.4824 1.40675C17.8815 2.01123 19.0986 2.83105 20.1338 3.86621C21.169 4.90135 21.9888 6.11847 22.5933 7.51756C23.1978 8.91665 23.5 10.4108 23.5 12C23.5 13.5892 23.1978 15.0833 22.5933 16.4824C21.9888 17.8815 21.169 19.0986 20.1338 20.1338C19.0986 21.169 17.8815 21.9888 16.4824 22.5933C15.0833 23.1978 13.5892 23.5 12 23.5ZM17.8431 9.32288L19.7101 8.7083L20.2409 6.86457C19.5953 5.85735 18.7992 4.99601 17.8525 4.28054C16.9057 3.56508 15.8566 3.03586 14.705 2.69287L12.9079 3.9593V5.86355L17.8431 9.32288ZM6.1569 9.32288L11.0921 5.86355V3.9593L9.29495 2.69287C8.14339 3.03586 7.09814 3.56508 6.15919 4.28054C5.22025 4.99601 4.42797 5.85735 3.78235 6.86457L4.31314 8.7083L6.1569 9.32288ZM4.72287 18.3879L6.37107 18.2435L7.41863 16.4464L5.64009 11.0874L3.71253 10.4123L2.31576 11.4366C2.31576 12.8024 2.49346 14.0385 2.84885 15.145C3.20426 16.2516 3.82894 17.3325 4.72287 18.3879ZM12 21.6842C12.5246 21.6842 13.0468 21.6419 13.5667 21.5574C14.0866 21.4728 14.612 21.3459 15.1427 21.1768L16.0832 19.1514L15.1567 17.6103H8.8433L7.94007 19.1514L8.88056 21.1768C9.38805 21.3459 9.90368 21.4728 10.4275 21.5574C10.9513 21.6419 11.4754 21.6842 12 21.6842ZM9.15991 15.7946H14.8634L16.6047 10.6731L12 7.44653L7.43255 10.6731L9.15991 15.7946ZM19.2771 18.3879C20.1711 17.3325 20.7957 16.2516 21.1511 15.145C21.5065 14.0385 21.6842 12.8024 21.6842 11.4366L20.3107 10.4729L18.3599 11.0641L16.5814 16.4464L17.6289 18.2435L19.2771 18.3879Z" fill="#4988CE"/>
</svg>
