<svg width="18" height="24" viewBox="0 0 18 24" fill="none" xmlns="http://www.w3.org/2000/svg">
<path d="M4.14599 8.59763V1.38459C4.14599 1.13395 4.23079 0.92385 4.4004 0.754298C4.57004 0.584767 4.78022 0.5 5.03096 0.5C5.28172 0.5 5.49178 0.584767 5.66113 0.754298C5.83049 0.92385 5.91516 1.13395 5.91516 1.38459V8.59763H7.54834V1.38459C7.54834 1.13395 7.63316 0.92385 7.80279 0.754298C7.9724 0.584767 8.18258 0.5 8.43334 0.5C8.68408 0.5 8.89413 0.584767 9.06348 0.754298C9.23286 0.92385 9.31755 1.13395 9.31755 1.38459V8.59763C9.31755 9.65312 8.98978 10.5615 8.33424 11.3229C7.67872 12.0843 6.87236 12.5685 5.91516 12.7757V22.6154C5.91516 22.866 5.83036 23.0761 5.66075 23.2456C5.49112 23.4152 5.28093 23.5 5.03019 23.5C4.77943 23.5 4.56938 23.4152 4.40002 23.2457C4.23067 23.0762 4.14599 22.8661 4.14599 22.6154V12.7757C3.1888 12.5686 2.38244 12.0843 1.72692 11.3229C1.07138 10.5616 0.743607 9.65315 0.743607 8.59766V1.38459C0.743607 1.13395 0.828422 0.92385 0.998052 0.754298C1.16768 0.584767 1.37787 0.5 1.62861 0.5C1.87937 0.5 2.08942 0.584767 2.25878 0.754298C2.42813 0.92385 2.51281 1.13395 2.51281 1.38459V8.59763H4.14599ZM15.4872 14.0641H13.334C13.029 14.0641 12.7748 13.9619 12.5714 13.7576C12.368 13.5532 12.2663 13.3001 12.2663 12.998V6.10254C12.2663 4.62061 12.695 3.31637 13.5524 2.18982C14.4098 1.06327 15.2808 0.5 16.1654 0.5C16.4965 0.5 16.7612 0.618706 16.9592 0.856118C17.1573 1.09351 17.2564 1.3914 17.2564 1.74979V22.6154C17.2564 22.866 17.1716 23.0761 17.0019 23.2456C16.8323 23.4152 16.6221 23.5 16.3714 23.5C16.1206 23.5 15.9106 23.4152 15.7412 23.2457C15.5719 23.0762 15.4872 22.8661 15.4872 22.6154V14.0641V14.0641Z" fill="#4988CE"/>
</svg>
