<svg width="20" height="24" viewBox="0 0 20 24" fill="none" xmlns="http://www.w3.org/2000/svg">
<path d="M6.18177 7.15788C5.92443 7.15788 5.70886 7.07088 5.53504 6.89686C5.36121 6.72285 5.2743 6.50723 5.2743 6.25001V4.66698C5.2743 4.40974 5.36134 4.19412 5.53544 4.02013C5.70953 3.84612 5.92525 3.75911 6.18259 3.75911C6.43995 3.75911 6.65553 3.84612 6.82934 4.02013C7.00315 4.19412 7.09006 4.40974 7.09006 4.66698V6.25001C7.09006 6.50723 7.00301 6.72285 6.82892 6.89686C6.65484 7.07088 6.43913 7.15788 6.18177 7.15788ZM6.18177 17.5172C5.92443 17.5172 5.70886 17.4302 5.53504 17.2562C5.36121 17.0822 5.2743 16.8665 5.2743 16.6093V12.7682C5.2743 12.511 5.36134 12.2953 5.53544 12.1213C5.70953 11.9473 5.92525 11.8603 6.18259 11.8603C6.43995 11.8603 6.65553 11.9473 6.82934 12.1213C7.00315 12.2953 7.09006 12.511 7.09006 12.7682V16.6093C7.09006 16.8665 7.00301 17.0822 6.82892 17.2562C6.65484 17.4302 6.43913 17.5172 6.18177 17.5172ZM3.10936 23.5C2.50758 23.5 1.99243 23.2857 1.5639 22.8572C1.13536 22.4286 0.921082 21.9135 0.921082 21.3117V2.68828C0.921082 2.0865 1.13536 1.57135 1.5639 1.14282C1.99243 0.714275 2.50758 0.5 3.10936 0.5H16.8907C17.4925 0.5 18.0076 0.714275 18.4361 1.14282C18.8647 1.57135 19.079 2.0865 19.079 2.68828V21.3117C19.079 21.9135 18.8647 22.4286 18.4361 22.8572C18.0076 23.2857 17.4925 23.5 16.8907 23.5H3.10936ZM3.10936 21.6842H16.8907C16.9993 21.6842 17.0886 21.6493 17.1584 21.5795C17.2283 21.5096 17.2632 21.4204 17.2632 21.3117V10.417H2.73685V21.3117C2.73685 21.4204 2.77177 21.5096 2.84162 21.5795C2.91146 21.6493 3.00071 21.6842 3.10936 21.6842ZM2.73685 8.60123H17.2632V2.68828C17.2632 2.57963 17.2283 2.49038 17.1584 2.42054C17.0886 2.35069 16.9993 2.31576 16.8907 2.31576H3.10936C3.00071 2.31576 2.91146 2.35069 2.84162 2.42054C2.77177 2.49038 2.73685 2.57963 2.73685 2.68828V8.60123Z" fill="#4988CE"/>
</svg>
