<svg width="24" height="24" viewBox="0 0 24 24" fill="none" xmlns="http://www.w3.org/2000/svg">
<path d="M4.87099 23.5H2.94572C2.2623 23.5 1.68383 23.2632 1.2103 22.7897C0.736765 22.3162 0.5 21.7377 0.5 21.0543V12C0.5 10.4042 0.801819 8.90905 1.40546 7.51448C2.00907 6.11991 2.8295 4.904 3.86674 3.86674C4.90399 2.8295 6.11991 2.00908 7.51448 1.40546C8.90905 0.80182 10.4042 0.5 12 0.5C13.5958 0.5 15.0909 0.80182 16.4855 1.40546C17.8801 2.00908 19.096 2.8295 20.1333 3.86674C21.1705 4.904 21.9909 6.11991 22.5945 7.51448C23.1982 8.90905 23.5 10.4042 23.5 12V21.0543C23.5 21.7377 23.2632 22.3162 22.7897 22.7897C22.3162 23.2632 21.7377 23.5 21.0543 23.5H19.129C18.4543 23.5 17.878 23.2611 17.4001 22.7832C16.9223 22.3053 16.6833 21.729 16.6833 21.0543V16.3711C16.6833 15.6963 16.9223 15.12 17.4001 14.6422C17.878 14.1643 18.4543 13.9254 19.129 13.9254H21.4706V12C21.4706 9.36176 20.5517 7.12376 18.714 5.28601C16.8762 3.44826 14.6382 2.52938 12 2.52938C9.36176 2.52938 7.12376 3.44826 5.28601 5.28601C3.44826 7.12376 2.52938 9.36176 2.52938 12V13.9254H4.87099C5.54573 13.9254 6.12203 14.1643 6.59989 14.6422C7.07775 15.12 7.31668 15.6963 7.31668 16.3711V21.0543C7.31668 21.729 7.07775 22.3053 6.59989 22.7832C6.12203 23.2611 5.54573 23.5 4.87099 23.5ZM4.87099 15.9548H2.52938V21.0543C2.52938 21.1584 2.57275 21.2538 2.65947 21.3405C2.74622 21.4273 2.84163 21.4706 2.94572 21.4706H4.87099C4.99242 21.4706 5.09217 21.4316 5.17023 21.3535C5.2483 21.2755 5.28733 21.1757 5.28733 21.0543V16.3711C5.28733 16.2496 5.2483 16.1499 5.17023 16.0719C5.09217 15.9938 4.99242 15.9548 4.87099 15.9548ZM18.7127 16.3711V21.0543C18.7127 21.1757 18.7517 21.2755 18.8298 21.3535C18.9078 21.4316 19.0076 21.4706 19.129 21.4706H21.0543C21.1584 21.4706 21.2538 21.4273 21.3405 21.3405C21.4273 21.2538 21.4706 21.1584 21.4706 21.0543V15.9548H19.129C19.0076 15.9548 18.9078 15.9938 18.8298 16.0719C18.7517 16.1499 18.7127 16.2496 18.7127 16.3711ZM4.87099 15.9548H5.28733H2.52938H4.87099Z" fill="#4988CE"/>
</svg>
