<svg width="24" height="16" viewBox="0 0 24 16" fill="none" xmlns="http://www.w3.org/2000/svg">
<path d="M2.50003 14.1923V2.11544C2.50003 1.61832 2.67704 1.19276 3.03106 0.838765C3.38506 0.484748 3.81061 0.307739 4.30773 0.307739H19.6923C20.1894 0.307739 20.615 0.484748 20.969 0.838765C21.323 1.19276 21.5 1.61832 21.5 2.11544V14.1923H22.75C22.9625 14.1923 23.1406 14.2642 23.2844 14.408C23.4281 14.5518 23.5 14.73 23.5 14.9426C23.5 15.1552 23.4281 15.3333 23.2844 15.4769C23.1406 15.6204 22.9625 15.6922 22.75 15.6922H1.25003C1.03753 15.6922 0.859406 15.6203 0.715656 15.4765C0.571906 15.3327 0.500031 15.1545 0.500031 14.9419C0.500031 14.7293 0.571906 14.5512 0.715656 14.4077C0.859406 14.2641 1.03753 14.1923 1.25003 14.1923H2.50003ZM10.4423 14.1923H13.5577C13.6757 14.1923 13.7789 14.1481 13.8673 14.0596C13.9558 13.9711 14 13.8679 14 13.75C14 13.632 13.9558 13.5288 13.8673 13.4404C13.7789 13.3519 13.6757 13.3077 13.5577 13.3077H10.4423C10.3244 13.3077 10.2212 13.3519 10.1327 13.4404C10.0442 13.5288 10 13.632 10 13.75C10 13.8679 10.0442 13.9711 10.1327 14.0596C10.2212 14.1481 10.3244 14.1923 10.4423 14.1923ZM4.00001 11.8077H20V2.11544C20 2.02569 19.9712 1.95196 19.9135 1.89426C19.8558 1.83656 19.782 1.80771 19.6923 1.80771H4.30773C4.21798 1.80771 4.14426 1.83656 4.08656 1.89426C4.02886 1.95196 4.00001 2.02569 4.00001 2.11544V11.8077Z" fill="#4988CE"/>
</svg>
