<svg width="24" height="14" viewBox="0 0 24 14" fill="none" xmlns="http://www.w3.org/2000/svg">
<path d="M4.17022 13.6064C3.15636 13.6064 2.2912 13.2482 1.57474 12.5317C0.858246 11.8152 0.5 10.9501 0.5 9.93622C0.5 9.01271 0.805533 8.20777 1.4166 7.52141C2.02768 6.83505 2.79498 6.43666 3.71849 6.32624H4.07614L2.95809 5.38138H1.08347C0.915338 5.38138 0.776066 5.32617 0.665649 5.21576C0.555216 5.10532 0.5 4.96604 0.5 4.79791C0.5 4.62978 0.555216 4.4905 0.665649 4.38007C0.776066 4.26965 0.915338 4.21445 1.08347 4.21445H4.43374L7.0876 5.79548L10.754 4.4215C10.8557 4.38887 10.9589 4.36189 11.0637 4.34055C11.1684 4.31923 11.2767 4.30857 11.3883 4.30857H14.6125L12.7943 1.97466C12.763 1.93701 12.7269 1.90878 12.6861 1.88995C12.6453 1.87113 12.5998 1.86172 12.5496 1.86172H11.0213C10.813 1.86172 10.6386 1.79145 10.4981 1.65092C10.3575 1.51039 10.2873 1.33599 10.2873 1.1277C10.2873 0.919407 10.3575 0.744999 10.4981 0.604471C10.6386 0.463942 10.813 0.393677 11.0213 0.393677H12.544C12.8225 0.393677 13.0838 0.455158 13.3279 0.578118C13.5719 0.701095 13.7742 0.867356 13.9349 1.0769L15.3465 2.88563L17.8121 1.80529C17.9627 1.74256 18.1045 1.75385 18.2375 1.83918C18.3705 1.92451 18.437 2.04748 18.437 2.20809V3.39569C18.437 3.51363 18.3928 3.61684 18.3043 3.70531C18.2158 3.79377 18.1126 3.838 17.9947 3.838H16.1106L18.2563 6.61611C18.501 6.49314 18.756 6.40404 19.0214 6.34882C19.2868 6.29362 19.5563 6.26602 19.8298 6.26602C20.8437 6.26602 21.7088 6.62426 22.4253 7.34074C23.1418 8.0572 23.5 8.92236 23.5 9.93622C23.5 10.9501 23.1418 11.8152 22.4253 12.5317C21.7088 13.2482 20.8437 13.6064 19.8298 13.6064C18.8159 13.6064 17.9508 13.2482 17.2343 12.5317C16.5179 11.8152 16.1596 10.9501 16.1596 9.93622C16.1596 9.48325 16.2434 9.05035 16.4109 8.63752C16.5784 8.2247 16.8133 7.84826 17.1158 7.50822L16.2876 6.46923L13.1312 11.2462C13.0496 11.3641 12.9448 11.4608 12.8169 11.536C12.6889 11.6113 12.5496 11.649 12.399 11.649H10.4661C10.3544 11.649 10.2502 11.6317 10.1536 11.5972C10.057 11.5627 9.97105 11.5078 9.89575 11.4325L7.84041 9.65385V10.0868C7.79022 11.0705 7.41191 11.9031 6.70548 12.5844C5.99904 13.2657 5.15395 13.6064 4.17022 13.6064ZM4.17022 12.1384C4.78381 12.1384 5.30423 11.9247 5.73148 11.4975C6.15874 11.0702 6.37237 10.5498 6.37237 9.93622C6.37237 9.32262 6.15874 8.8022 5.73148 8.37495C5.30423 7.94769 4.78381 7.73406 4.17022 7.73406C3.55662 7.73406 3.0362 7.94769 2.60896 8.37495C2.18169 8.8022 1.96806 9.32262 1.96806 9.93622C1.96806 10.5498 2.18169 11.0702 2.60896 11.4975C3.0362 11.9247 3.55662 12.1384 4.17022 12.1384ZM19.8298 12.1384C20.4434 12.1384 20.9638 11.9247 21.3911 11.4975C21.8183 11.0702 22.032 10.5498 22.032 9.93622C22.032 9.32262 21.8183 8.8022 21.3911 8.37495C20.9638 7.94769 20.4434 7.73406 19.8298 7.73406C19.2162 7.73406 18.6958 7.94769 18.2685 8.37495C17.8413 8.8022 17.6277 9.32262 17.6277 9.93622C17.6277 10.5498 17.8413 11.0702 18.2685 11.4975C18.6958 11.9247 19.2162 12.1384 19.8298 12.1384ZM12.0828 10.1809L14.9965 5.77661H11.3262L7.36986 7.24849L10.6825 10.1809H12.0828Z" fill="#4988CE"/>
</svg>
