<svg width="24" height="24" viewBox="0 0 24 24" fill="none" xmlns="http://www.w3.org/2000/svg">
<path d="M11.9767 23.5C10.4077 23.5 8.92558 23.1978 7.53036 22.5933C6.13517 21.9888 4.91688 21.1659 3.8755 20.1245C2.83414 19.0831 2.01122 17.8629 1.40675 16.4638C0.802249 15.0647 0.5 13.5768 0.5 12C0.5 10.403 0.8104 8.90501 1.4312 7.50594C2.05198 6.10685 2.89507 4.88972 3.96048 3.85456C5.02591 2.81942 6.27213 2.00154 7.69914 1.40094C9.12617 0.800313 10.6483 0.5 12.2654 0.5C13.7785 0.5 15.2125 0.758015 16.5674 1.27404C17.9223 1.79007 19.1122 2.50436 20.1373 3.41692C21.1624 4.32946 21.9791 5.41388 22.5874 6.67019C23.1958 7.9265 23.5 9.28873 23.5 10.7569C23.5 12.852 22.8773 14.4909 21.6318 15.6734C20.3864 16.856 18.7898 17.4474 16.8421 17.4474H14.6492C14.3047 17.4474 14.0292 17.5599 13.8228 17.7849C13.6163 18.0099 13.5131 18.2761 13.5131 18.5834C13.5131 18.9575 13.6644 19.3462 13.9671 19.7497C14.2697 20.1532 14.421 20.6165 14.421 21.1395C14.421 21.9387 14.1999 22.532 13.7576 22.9192C13.3153 23.3064 12.7216 23.5 11.9767 23.5ZM5.34209 12.9079C5.77352 12.9079 6.13357 12.7635 6.42224 12.4749C6.71089 12.1862 6.85522 11.8262 6.85522 11.3947C6.85522 10.9633 6.71089 10.6033 6.42224 10.3146C6.13357 10.0259 5.77352 9.8816 5.34209 9.8816C4.91065 9.8816 4.5506 10.0259 4.26193 10.3146C3.97328 10.6033 3.82896 10.9633 3.82896 11.3947C3.82896 11.8262 3.97328 12.1862 4.26193 12.4749C4.5506 12.7635 4.91065 12.9079 5.34209 12.9079ZM8.97368 8.06575C9.40511 8.06575 9.76516 7.92142 10.0538 7.63277C10.3425 7.3441 10.4868 6.98405 10.4868 6.55262C10.4868 6.12118 10.3425 5.76113 10.0538 5.47246C9.76516 5.18381 9.40511 5.03949 8.97368 5.03949C8.54224 5.03949 8.18219 5.18381 7.89352 5.47246C7.60487 5.76113 7.46054 6.12118 7.46054 6.55262C7.46054 6.98405 7.60487 7.3441 7.89352 7.63277C8.18219 7.92142 8.54224 8.06575 8.97368 8.06575ZM15.0263 8.06575C15.4578 8.06575 15.8178 7.92142 16.1065 7.63277C16.3951 7.3441 16.5395 6.98405 16.5395 6.55262C16.5395 6.12118 16.3951 5.76113 16.1065 5.47246C15.8178 5.18381 15.4578 5.03949 15.0263 5.03949C14.5949 5.03949 14.2348 5.18381 13.9462 5.47246C13.6575 5.76113 13.5132 6.12118 13.5132 6.55262C13.5132 6.98405 13.6575 7.3441 13.9462 7.63277C14.2348 7.92142 14.5949 8.06575 15.0263 8.06575ZM18.6579 12.9079C19.0893 12.9079 19.4494 12.7635 19.7381 12.4749C20.0267 12.1862 20.171 11.8262 20.171 11.3947C20.171 10.9633 20.0267 10.6033 19.7381 10.3146C19.4494 10.0259 19.0893 9.8816 18.6579 9.8816C18.2265 9.8816 17.8664 10.0259 17.5778 10.3146C17.2891 10.6033 17.1448 10.9633 17.1448 11.3947C17.1448 11.8262 17.2891 12.1862 17.5778 12.4749C17.8664 12.7635 18.2265 12.9079 18.6579 12.9079ZM11.9767 21.6842C12.1738 21.6842 12.3279 21.6357 12.4388 21.5387C12.5498 21.4417 12.6053 21.3087 12.6053 21.1395C12.6053 20.857 12.4539 20.5397 12.1513 20.1874C11.8487 19.8351 11.6974 19.2834 11.6974 18.5322C11.6974 17.6693 11.9899 16.9702 12.575 16.4347C13.1601 15.8993 13.8763 15.6316 14.7237 15.6316H16.8421C18.2668 15.6316 19.43 15.2141 20.3317 14.3791C21.2334 13.5442 21.6842 12.3368 21.6842 10.7569C21.6842 8.30787 20.7453 6.28877 18.8674 4.69957C16.9895 3.11037 14.7889 2.31576 12.2654 2.31576C9.49823 2.31576 7.14818 3.25392 5.21522 5.13025C3.28225 7.00657 2.31576 9.29648 2.31576 12C2.31576 14.6833 3.25897 16.9682 5.14538 18.8546C7.03178 20.741 9.3089 21.6842 11.9767 21.6842Z" fill="#4988CE"/>
</svg>
