<svg width="24" height="22" viewBox="0 0 24 22" fill="none" xmlns="http://www.w3.org/2000/svg">
<path d="M11.2181 21.9491C9.89336 21.6969 8.59009 21.2665 7.30825 20.6581C6.02639 20.0497 4.88216 19.2034 3.87557 18.119C2.86896 17.0347 2.0547 15.6957 1.43281 14.1021C0.810937 12.5086 0.5 10.6068 0.5 8.39688V8.17318C0.5 7.91619 0.580908 7.70678 0.742723 7.54497C0.904538 7.38315 1.11394 7.30225 1.37094 7.30225H1.57085C2.52747 7.30225 3.58047 7.472 4.72987 7.81151C5.87926 8.151 6.90292 8.60473 7.80084 9.17269C7.96424 7.71792 8.34657 6.21198 8.94782 4.65488C9.54909 3.09777 10.2923 1.69733 11.1776 0.453564C11.3933 0.150537 11.6654 -0.000976562 11.9938 -0.000976562C12.3222 -0.000976562 12.5943 0.150537 12.81 0.453564C13.6953 1.69733 14.4385 3.10174 15.0398 4.66679C15.641 6.23181 16.0234 7.74171 16.1868 9.19648C17.0609 8.65234 18.0647 8.20654 19.1982 7.85909C20.3318 7.51166 21.3967 7.32605 22.393 7.30225L22.5643 7.29034C22.8261 7.28239 23.0494 7.37084 23.2342 7.55567C23.419 7.74048 23.5074 7.96377 23.4995 8.22553L23.4876 8.42067C23.4321 10.4243 23.135 12.1853 22.5964 13.7035C22.0578 15.2217 21.3328 16.527 20.4214 17.6192C19.51 18.7115 18.4372 19.6035 17.2029 20.2952C15.9687 20.9869 14.6257 21.5184 13.1741 21.8896C12.906 21.9547 12.58 21.9911 12.1961 21.9991C11.8122 22.007 11.4862 21.9903 11.2181 21.9491ZM12.1699 20.2096C11.9431 16.8067 10.917 14.2235 9.09179 12.4602C7.26658 10.6968 5.03404 9.6089 2.39417 9.19642C2.35293 9.19642 2.35293 9.19642 2.39417 9.19642C2.62104 12.6819 3.67801 15.3011 5.5651 17.0541C7.45219 18.8072 9.6538 19.859 12.1699 20.2096C12.2112 20.2302 12.2112 20.2354 12.1699 20.2251C12.1287 20.2148 12.1287 20.2096 12.1699 20.2096ZM9.5808 10.3101C10.0171 10.6766 10.4561 11.122 10.898 11.6464C11.3398 12.1707 11.7051 12.6756 11.9938 13.161C12.2873 12.6756 12.6538 12.1707 13.0932 11.6464C13.5327 11.122 13.9705 10.6766 14.4068 10.3101C14.3814 9.09492 14.1573 7.82021 13.7345 6.486C13.3117 5.15178 12.7315 3.86436 11.9938 2.62375C11.2561 3.86436 10.6759 5.14979 10.2531 6.48003C9.83028 7.8103 9.60619 9.087 9.5808 10.3101ZM12.998 15.1885C13.2455 15.8485 13.4529 16.5425 13.6203 17.2707C13.7876 17.9989 13.9229 18.8167 14.026 19.7242C14.8716 19.437 15.7227 19.0321 16.5794 18.5093C17.4361 17.9866 18.2131 17.3068 18.9104 16.4699C19.6076 15.6331 20.2021 14.6193 20.6939 13.4287C21.1857 12.238 21.4855 10.8273 21.5934 9.19642C21.5934 9.15517 21.5934 9.15517 21.5934 9.19642C19.6231 9.48516 17.8819 10.1594 16.37 11.2192C14.8581 12.2789 13.7341 13.602 12.998 15.1885Z" fill="#4988CE"/>
</svg>
