<svg width="24" height="22" viewBox="0 0 24 22" fill="none" xmlns="http://www.w3.org/2000/svg">
<path d="M16.9938 6.19835V2.45302H7.00623V6.19835H5.1336V1.70376C5.1336 1.38539 5.24174 1.11857 5.45803 0.903293C5.67431 0.68802 5.9423 0.580383 6.262 0.580383H17.733C18.058 0.580383 18.3282 0.688061 18.5435 0.903417C18.7588 1.11877 18.8664 1.38563 18.8664 1.70398V6.19835H16.9938ZM19.2506 11.1921C19.6043 11.1921 19.9008 11.0724 20.1401 10.8331C20.3794 10.5938 20.499 10.2973 20.499 9.94361C20.499 9.58989 20.3794 9.29338 20.1401 9.0541C19.9008 8.81481 19.6043 8.69517 19.2506 8.69517C18.8968 8.69517 18.6003 8.81481 18.361 9.0541C18.1217 9.29338 18.0021 9.58989 18.0021 9.94361C18.0021 10.2973 18.1217 10.5938 18.361 10.8331C18.6003 11.0724 18.8968 11.1921 19.2506 11.1921ZM7.39041 19.547H16.6096C16.7216 19.547 16.8137 19.511 16.8857 19.439C16.9578 19.367 16.9938 19.2749 16.9938 19.1629V14.2171H7.00623V19.1629C7.00623 19.2749 7.04225 19.367 7.11428 19.439C7.18632 19.511 7.27836 19.547 7.39041 19.547ZM7.39041 21.4197C6.76978 21.4197 6.2385 21.1987 5.79655 20.7567C5.35458 20.3148 5.1336 19.7835 5.1336 19.1629V16.4259H1.62837C1.30867 16.4259 1.04068 16.3178 0.824408 16.1015C0.608136 15.8852 0.5 15.6172 0.5 15.2975V9.31939C0.5 8.4351 0.802102 7.69384 1.40631 7.09563C2.01051 6.49744 2.74876 6.19835 3.62104 6.19835H20.379C21.2632 6.19835 22.0045 6.49744 22.6027 7.09563C23.2009 7.69384 23.5 8.4351 23.5 9.31939V15.2975C23.5 15.6172 23.3919 15.8852 23.1756 16.1015C22.9593 16.3178 22.6913 16.4259 22.3716 16.4259H18.8664V19.1629C18.8664 19.7835 18.6454 20.3148 18.2035 20.7567C17.7615 21.1987 17.2302 21.4197 16.6096 21.4197H7.39041ZM21.6274 14.5533V9.31939C21.6274 8.96566 21.5078 8.66916 21.2685 8.42987C21.0292 8.19059 20.7327 8.07095 20.379 8.07095H3.62104C3.26732 8.07095 2.97081 8.19059 2.73153 8.42987C2.49224 8.66916 2.3726 8.96566 2.3726 9.31939V14.5533H5.1336V12.3445H18.8664V14.5533H21.6274Z" fill="#4988CE"/>
</svg>
