<svg width="24" height="24" viewBox="0 0 24 24" fill="none" xmlns="http://www.w3.org/2000/svg">
<path d="M21.0984 14.3931H22.841V6.75919C22.841 6.41663 22.7632 6.0938 22.6075 5.79071C22.4519 5.48761 22.234 5.24074 21.9541 5.0501L16.2124 0.952751C15.8432 0.692116 15.4389 0.561798 14.9994 0.561798C14.56 0.561798 14.1556 0.692116 13.7862 0.952751L8.04454 5.0501C7.76454 5.24074 7.54672 5.48761 7.39106 5.79071C7.23543 6.0938 7.15761 6.41663 7.15761 6.75919V8.97546H8.90016V6.73014C8.90016 6.67057 8.9132 6.61471 8.93928 6.56256C8.96534 6.51044 9.00443 6.46576 9.05656 6.42853L14.7982 2.41831C14.8578 2.37362 14.9248 2.35128 14.9993 2.35128C15.0738 2.35128 15.1408 2.37362 15.2004 2.41831L20.942 6.42853C20.9942 6.46576 21.0332 6.51044 21.0593 6.56256C21.0854 6.61471 21.0984 6.67057 21.0984 6.73014V14.3931ZM16.161 7.22165C16.021 7.22165 15.8985 7.16915 15.7935 7.06414C15.6885 6.95914 15.636 6.83664 15.636 6.69663C15.636 6.55662 15.6885 6.43412 15.7935 6.32911C15.8985 6.22411 16.021 6.17161 16.161 6.17161C16.301 6.17161 16.4235 6.22411 16.5285 6.32911C16.6335 6.43412 16.686 6.55662 16.686 6.69663C16.686 6.83664 16.6335 6.95914 16.5285 7.06414C16.4235 7.16915 16.301 7.22165 16.161 7.22165ZM13.8376 7.22165C13.6976 7.22165 13.575 7.16915 13.47 7.06414C13.365 6.95914 13.3125 6.83664 13.3125 6.69663C13.3125 6.55662 13.365 6.43412 13.47 6.32911C13.575 6.22411 13.6976 6.17161 13.8376 6.17161C13.9776 6.17161 14.1001 6.22411 14.2051 6.32911C14.3101 6.43412 14.3626 6.55662 14.3626 6.69663C14.3626 6.83664 14.3101 6.95914 14.2051 7.06414C14.1001 7.16915 13.9776 7.22165 13.8376 7.22165ZM16.161 9.54512C16.021 9.54512 15.8985 9.49261 15.7935 9.38761C15.6885 9.28261 15.636 9.16011 15.636 9.0201C15.636 8.88009 15.6885 8.75759 15.7935 8.65258C15.8985 8.54758 16.021 8.49508 16.161 8.49508C16.301 8.49508 16.4235 8.54758 16.5285 8.65258C16.6335 8.75759 16.686 8.88009 16.686 9.0201C16.686 9.16011 16.6335 9.28261 16.5285 9.38761C16.4235 9.49261 16.301 9.54512 16.161 9.54512ZM13.8376 9.54512C13.6976 9.54512 13.575 9.49261 13.47 9.38761C13.365 9.28261 13.3125 9.16011 13.3125 9.0201C13.3125 8.88009 13.365 8.75759 13.47 8.65258C13.575 8.54758 13.6976 8.49508 13.8376 8.49508C13.9776 8.49508 14.1001 8.54758 14.2051 8.65258C14.3101 8.75759 14.3626 8.88009 14.3626 9.0201C14.3626 9.16011 14.3101 9.28261 14.2051 9.38761C14.1001 9.49261 13.9776 9.54512 13.8376 9.54512ZM14.6396 21.6495C14.6768 21.6644 14.7103 21.6718 14.7401 21.6718C14.7699 21.6718 14.8034 21.6644 14.8407 21.6495L21.6748 19.5338C21.6152 19.2702 21.4923 19.068 21.3061 18.9272C21.1199 18.7865 20.9091 18.7161 20.6739 18.7161H14.9845C14.4776 18.7161 14.0473 18.6953 13.6937 18.6536C13.3401 18.6118 12.9755 18.5284 12.5998 18.4033L10.7768 17.8068C10.5425 17.7324 10.3741 17.5834 10.2716 17.36C10.169 17.1366 10.155 16.9091 10.2295 16.6775C10.3039 16.4459 10.448 16.2761 10.6618 16.1681C10.8755 16.0602 11.1 16.0434 11.3353 16.1179L12.8456 16.6474C13.1971 16.7591 13.5903 16.8384 14.0252 16.8853C14.4601 16.9322 15.0238 16.9616 15.7162 16.9735H16.027C16.027 16.6861 15.9622 16.4381 15.8326 16.2296C15.703 16.0211 15.5325 15.8803 15.321 15.8073L8.58071 13.3319C8.55836 13.3245 8.53788 13.3189 8.51925 13.3152C8.50063 13.3115 8.48015 13.3096 8.45783 13.3096H6.30859V19.297L14.6396 21.6495ZM14.1861 23.3563L6.30859 21.0976C6.17603 21.5787 5.90645 21.9648 5.49985 22.256C5.09324 22.5472 4.66281 22.6928 4.20855 22.6928H2.60004C2.02252 22.6928 1.52814 22.4871 1.11688 22.0759C0.705627 21.6646 0.5 21.1702 0.5 20.5927V13.6671C0.5 13.0896 0.705627 12.5952 1.11688 12.1839C1.52814 11.7727 2.02252 11.567 2.60004 11.567H8.44496C8.56673 11.567 8.69016 11.5804 8.81526 11.6073C8.94038 11.6341 9.05656 11.6653 9.16378 11.7011L15.9331 14.1944C16.4604 14.3895 16.8982 14.7346 17.2468 15.2298C17.5953 15.7251 17.7695 16.3063 17.7695 16.9735H20.6739C21.508 16.9735 22.1875 17.2427 22.7125 17.7811C23.2375 18.3196 23.5 19.0185 23.5 19.8778C23.5 20.207 23.4129 20.4721 23.2386 20.6732C23.0644 20.8742 22.8008 21.0336 22.4478 21.1513L15.3992 23.3385C15.2085 23.401 15.0082 23.4341 14.7982 23.4379C14.5882 23.4416 14.3842 23.4144 14.1861 23.3563ZM2.24254 20.5927C2.24254 20.697 2.27606 20.7826 2.34309 20.8497C2.41012 20.9167 2.49577 20.9502 2.60004 20.9502H4.20855C4.31281 20.9502 4.39845 20.9223 4.46547 20.8664C4.5325 20.8106 4.56601 20.7193 4.56601 20.5927V13.3096H2.60004C2.49577 13.3096 2.41012 13.3431 2.34309 13.4101C2.27606 13.4772 2.24254 13.5628 2.24254 13.6671V20.5927Z" fill="#4988CE"/>
</svg>
