<svg width="24" height="24" viewBox="0 0 24 24" fill="none" xmlns="http://www.w3.org/2000/svg">
<path d="M7.55314 23.5C6.97434 23.5 6.4822 23.2973 6.07672 22.8918C5.67124 22.4863 5.4685 21.9942 5.4685 21.4154C5.4685 20.8366 5.67124 20.3444 6.07672 19.9389C6.4822 19.5335 6.97434 19.3307 7.55314 19.3307C8.13196 19.3307 8.62412 19.5335 9.02959 19.9389C9.43507 20.3444 9.63781 20.8366 9.63781 21.4154C9.63781 21.9942 9.43507 22.4863 9.02959 22.8918C8.62412 23.2973 8.13196 23.5 7.55314 23.5ZM19.099 23.5C18.5202 23.5 18.028 23.2973 17.6225 22.8918C17.2171 22.4863 17.0143 21.9942 17.0143 21.4154C17.0143 20.8366 17.2171 20.3444 17.6225 19.9389C18.028 19.5335 18.5202 19.3307 19.099 19.3307C19.6778 19.3307 20.1699 19.5335 20.5754 19.9389C20.9809 20.3444 21.1836 20.8366 21.1836 21.4154C21.1836 21.9942 20.9809 22.4863 20.5754 22.8918C20.1699 23.2973 19.6778 23.5 19.099 23.5ZM6.19695 4.66931L9.21629 10.992H17.3373C17.4061 10.992 17.4672 10.9749 17.5206 10.9405C17.5741 10.9061 17.6199 10.8584 17.6581 10.7973L20.8538 4.99002C20.8996 4.90602 20.9034 4.83156 20.8652 4.76666C20.8271 4.70174 20.7621 4.66928 20.6705 4.66928L6.19695 4.66931ZM5.34018 2.88251H21.88C22.3672 2.88251 22.7356 3.08982 22.9853 3.50445C23.2351 3.9191 23.2469 4.34253 23.0208 4.77473L19.2044 11.6884C19.0089 12.032 18.7504 12.2997 18.4289 12.4914C18.1074 12.683 17.755 12.7788 17.3717 12.7788H8.68023L7.30114 15.2988C7.24004 15.3904 7.23814 15.4897 7.29542 15.5966C7.3527 15.7035 7.4386 15.757 7.55314 15.757H20.2902C20.5437 15.757 20.756 15.8425 20.9271 16.0136C21.0981 16.1846 21.1836 16.3969 21.1836 16.6504C21.1836 16.9039 21.0981 17.1162 20.9271 17.2872C20.756 17.4583 20.5437 17.5438 20.2902 17.5438H7.55314C6.759 17.5438 6.16224 17.2013 5.76286 16.5164C5.3635 15.8314 5.34937 15.1476 5.72048 14.465L7.42032 11.409L3.08602 2.2868H1.71151C1.45798 2.2868 1.2457 2.20128 1.07468 2.03024C0.903595 1.85919 0.818054 1.64692 0.818054 1.3934C0.818054 1.13988 0.903585 0.927607 1.07465 0.756565C1.24569 0.585523 1.45797 0.5 1.71148 0.5H3.53268C3.73581 0.5 3.92518 0.553835 4.10081 0.661503C4.27644 0.769171 4.41008 0.920746 4.50172 1.11623L5.34015 2.88248L5.34018 2.88251Z" fill="#4988CE"/>
</svg>
