<svg width="24" height="18" viewBox="0 0 24 18" fill="none" xmlns="http://www.w3.org/2000/svg">
<path d="M4.35404 17.7934C4.12119 17.7934 3.92614 17.7147 3.76888 17.5572C3.61162 17.3998 3.53299 17.2047 3.53299 16.972V15.8767H3.2381C2.47285 15.8767 1.8252 15.6117 1.29514 15.0816C0.765048 14.5516 0.5 13.9039 0.5 13.1387V7.66249C0.5 6.85512 0.775562 6.19693 1.32669 5.68791C1.87781 5.17892 2.51494 4.92442 3.23807 4.92442V2.94459C3.23807 2.17934 3.5031 1.53169 4.03316 1.00163C4.56322 0.471572 5.21088 0.206543 5.97614 0.206543H18.0238C18.7891 0.206543 19.4368 0.471572 19.9668 1.00163C20.4969 1.53169 20.7619 2.17934 20.7619 2.94459V4.92442C21.5131 4.92442 22.1573 5.18419 22.6944 5.70371C23.2315 6.22324 23.5 6.87617 23.5 7.66249V13.1387C23.5 13.9039 23.235 14.5516 22.7049 15.0816C22.1748 15.6117 21.5272 15.8767 20.7619 15.8767H20.467V16.972C20.467 17.2047 20.3919 17.3998 20.2417 17.5572C20.0914 17.7147 19.8999 17.7934 19.667 17.7934C19.4342 17.7934 19.239 17.7147 19.0815 17.5572C18.924 17.3998 18.8453 17.2047 18.8453 16.972V15.8767H5.17582V16.972C5.17582 17.2051 5.09707 17.4002 4.93955 17.5575C4.78204 17.7148 4.58687 17.7934 4.35404 17.7934ZM3.2381 14.2339H20.7619C21.0722 14.2339 21.3324 14.129 21.5423 13.9191C21.7522 13.7091 21.8572 13.449 21.8572 13.1387V7.66249C21.8572 7.35218 21.7522 7.09206 21.5423 6.88214C21.3324 6.67221 21.0722 6.56725 20.7619 6.56725C20.4516 6.56725 20.1915 6.67221 19.9816 6.88214C19.7717 7.09206 19.6667 7.35218 19.6667 7.66249V11.7696H4.33334V7.66249C4.33334 7.35218 4.22838 7.09206 4.01846 6.88214C3.80854 6.67221 3.54842 6.56725 3.2381 6.56725C2.92778 6.56725 2.66766 6.67221 2.45774 6.88214C2.24782 7.09206 2.14286 7.35218 2.14286 7.66249V13.1387C2.14286 13.449 2.24782 13.7091 2.45774 13.9191C2.66766 14.129 2.92778 14.2339 3.2381 14.2339ZM5.97617 10.1268H18.0239V7.66249C18.0239 7.21878 18.1243 6.81368 18.325 6.44722C18.5258 6.08073 18.7905 5.77393 19.1191 5.52681V2.94459C19.1191 2.63427 19.0141 2.37415 18.8042 2.16423C18.5943 1.95431 18.3342 1.84935 18.0239 1.84935H5.97617C5.66585 1.84935 5.40573 1.95431 5.19581 2.16423C4.98589 2.37415 4.88093 2.63427 4.88093 2.94459V5.52681C5.2095 5.77393 5.47418 6.08073 5.67498 6.44722C5.87577 6.81368 5.97617 7.21878 5.97617 7.66249V10.1268Z" fill="#4988CE"/>
</svg>
