<svg width="24" height="20" viewBox="0 0 24 20" fill="none" xmlns="http://www.w3.org/2000/svg">
<path d="M4.65099 16.2206C4.29281 16.0213 4.01211 15.7524 3.80889 15.4139C3.60565 15.0753 3.50403 14.6956 3.50403 14.2748V9.0048L1.0793 7.66396C0.879964 7.55029 0.73358 7.41198 0.640148 7.24905C0.546716 7.08611 0.5 6.90507 0.5 6.70592C0.5 6.50678 0.546716 6.32585 0.640148 6.16312C0.73358 6.00037 0.879964 5.86215 1.0793 5.74848L10.3538 0.695254C10.5184 0.603704 10.688 0.53652 10.8624 0.493701C11.0369 0.450862 11.216 0.429443 11.3997 0.429443C11.5833 0.429443 11.7624 0.450862 11.9369 0.493701C12.1113 0.53652 12.281 0.603603 12.446 0.69495L22.9207 6.39553C23.1076 6.49675 23.2508 6.63367 23.3505 6.80628C23.4502 6.97887 23.5 7.1651 23.5 7.36496V14.5318C23.5 14.7899 23.4127 15.0062 23.238 15.1808C23.0633 15.3555 22.8468 15.4428 22.5886 15.4428C22.3303 15.4428 22.114 15.3555 21.9396 15.1808C21.7652 15.0062 21.678 14.7899 21.678 14.5318V7.71535L19.2953 9.0048V14.2748C19.2953 14.6956 19.1937 15.0753 18.9904 15.4139C18.7872 15.7524 18.5065 16.0213 18.1483 16.2206L12.4485 19.3018C12.2819 19.3952 12.1113 19.4634 11.9369 19.5062C11.7624 19.549 11.5833 19.5704 11.3997 19.5704C11.216 19.5704 11.0369 19.549 10.8624 19.5062C10.688 19.4634 10.5174 19.3952 10.3508 19.3018L4.65099 16.2206ZM11.2595 11.1306C11.314 11.1617 11.3627 11.1773 11.4055 11.1773C11.4483 11.1773 11.497 11.1617 11.5515 11.1306L19.7088 6.70622L11.5515 2.29355C11.497 2.26239 11.4483 2.24681 11.4055 2.24681C11.3627 2.24681 11.314 2.26239 11.2595 2.29355L3.09054 6.70622L11.2595 11.1306ZM11.2478 17.725C11.3023 17.7562 11.3529 17.7718 11.3997 17.7718C11.4464 17.7718 11.497 17.7562 11.5515 17.725L17.298 14.6205C17.3603 14.5816 17.4051 14.5368 17.4324 14.4862C17.4596 14.4356 17.4732 14.3713 17.4732 14.2935V9.97657L12.4672 12.726C12.3006 12.8195 12.1277 12.8876 11.9486 12.9304C11.7695 12.9732 11.5865 12.9947 11.3997 12.9947C11.2128 12.9947 11.0298 12.9732 10.8507 12.9304C10.6716 12.8876 10.4987 12.8195 10.3321 12.726L5.32607 9.97657V14.2935C5.32607 14.3558 5.3397 14.4161 5.36695 14.4745C5.39422 14.5329 5.439 14.5816 5.50129 14.6205L11.2478 17.725Z" fill="#4988CE"/>
</svg>
