<svg width="24" height="18" viewBox="0 0 24 18" fill="none" xmlns="http://www.w3.org/2000/svg">
<path d="M3.27728 6.57658C3.04995 6.57658 2.8594 6.49966 2.70562 6.34581C2.55184 6.19198 2.47495 6.00134 2.47495 5.77391C2.47495 5.54649 2.55184 5.35599 2.70562 5.20239C2.8594 5.04877 3.04995 4.97196 3.27728 4.97196H6.54831C7.01323 4.97196 7.41747 5.12659 7.76103 5.43586C8.10458 5.74513 8.30379 6.12537 8.35865 6.57658H3.27728ZM5.43738 16.1839C6.36314 16.1839 7.15004 15.8599 7.79807 15.2119C8.44612 14.5638 8.77014 13.7769 8.77014 12.8512C8.77014 11.9254 8.44612 11.1385 7.79807 10.4905C7.15004 9.84244 6.36314 9.51842 5.43738 9.51842C4.51162 9.51842 3.72473 9.84244 3.0767 10.4905C2.42865 11.1385 2.10463 11.9254 2.10463 12.8512C2.10463 13.7769 2.42865 14.5638 3.0767 15.2119C3.72473 15.8599 4.51162 16.1839 5.43738 16.1839ZM20.0233 16.1839C20.5376 16.1839 20.9782 16.0005 21.3451 15.6336C21.712 15.2667 21.8954 14.8261 21.8954 14.3118C21.8954 13.7975 21.712 13.3569 21.3451 12.99C20.9782 12.6231 20.5376 12.4397 20.0233 12.4397C19.509 12.4397 19.0684 12.6231 18.7015 12.99C18.3346 13.3569 18.1512 13.7975 18.1512 14.3118C18.1512 14.8261 18.3346 15.2667 18.7015 15.6336C19.0684 16.0005 19.509 16.1839 20.0233 16.1839ZM5.43495 14.2501C5.0457 14.2501 4.71564 14.1138 4.44477 13.8414C4.17391 13.5689 4.03847 13.238 4.03847 12.8487C4.03847 12.4595 4.17472 12.1294 4.44721 11.8586C4.71968 11.5877 5.05054 11.4523 5.43979 11.4523C5.82906 11.4523 6.15913 11.5885 6.43 11.861C6.70086 12.1335 6.83629 12.4643 6.83629 12.8536C6.83629 13.2429 6.70005 13.5729 6.42756 13.8438C6.15509 14.1147 5.82422 14.2501 5.43495 14.2501ZM20.5376 10.8618C20.8777 10.9304 21.1616 11.0165 21.3893 11.12C21.6169 11.2236 21.8679 11.3933 22.1422 11.6292V5.56854C22.1422 5.03674 21.9528 4.58149 21.5741 4.20279C21.1955 3.8241 20.7402 3.63475 20.2084 3.63475H14.0861L12.9628 2.458L14.4605 0.960325L13.7117 0.211487L9.91399 4.00917L10.7163 4.758L12.214 3.26033L13.3372 4.38358V6.43257C13.3372 7.1341 13.0875 7.73465 12.5879 8.23422C12.0883 8.7338 11.4878 8.98359 10.7862 8.98359H8.48622C8.79343 9.22497 9.04097 9.46497 9.22886 9.7036C9.41674 9.94225 9.6115 10.2371 9.81311 10.5882H10.7862C11.9355 10.5882 12.9155 10.1829 13.726 9.37237C14.5366 8.56181 14.9419 7.58187 14.9419 6.43257V5.23935H20.2084C20.3044 5.23935 20.3833 5.27021 20.445 5.33193C20.5067 5.39366 20.5376 5.47253 20.5376 5.56854V10.8618ZM16.6042 13.6535C16.6906 13.3024 16.7887 13.015 16.8986 12.7912C17.0085 12.5675 17.1799 12.3201 17.4126 12.0489H10.2986C10.3494 12.3566 10.3747 12.6241 10.3747 12.8515C10.3747 13.079 10.3494 13.3463 10.2986 13.6535H16.6042ZM20.0233 17.7885C19.0577 17.7885 18.2369 17.4505 17.5608 16.7743C16.8846 16.0982 16.5466 15.2774 16.5466 14.3118C16.5466 13.3463 16.8846 12.5254 17.5608 11.8493C18.2369 11.1732 19.0577 10.8351 20.0233 10.8351C20.9888 10.8351 21.8096 11.1732 22.4858 11.8493C23.1619 12.5254 23.5 13.3463 23.5 14.3118C23.5 15.2774 23.1619 16.0982 22.4858 16.7743C21.8096 17.4505 20.9888 17.7885 20.0233 17.7885ZM5.43738 17.7885C4.07138 17.7885 2.90698 17.3071 1.94419 16.3444C0.981396 15.3816 0.5 14.2172 0.5 12.8512C0.5 11.4852 0.981396 10.3208 1.94419 9.35798C2.90698 8.39521 4.07138 7.91382 5.43738 7.91382C6.80339 7.91382 7.96779 8.39521 8.93058 9.35798C9.89335 10.3208 10.3747 11.4852 10.3747 12.8512C10.3747 14.2172 9.89335 15.3816 8.93058 16.3444C7.96779 17.3071 6.80339 17.7885 5.43738 17.7885Z" fill="#4988CE"/>
</svg>
