<svg width="24" height="18" viewBox="0 0 24 18" fill="none" xmlns="http://www.w3.org/2000/svg">
<path d="M5.35493 17.1267C4.5124 17.1267 3.79707 16.8321 3.20892 16.2428C2.62078 15.6535 2.32671 14.9379 2.32671 14.0961H1.47564C1.1992 14.0961 0.967481 14.0026 0.780488 13.8156C0.593496 13.6286 0.5 13.3969 0.5 13.1205V2.82445C0.5 2.27919 0.688899 1.81767 1.0667 1.43987C1.4445 1.06207 1.90601 0.873169 2.45125 0.873169H15.1967C15.7333 0.873169 16.1927 1.06424 16.5748 1.44637C16.957 1.82849 17.148 2.28785 17.148 2.82445V4.98329H19.037C19.3459 4.98329 19.6386 5.0524 19.915 5.1906C20.1915 5.32882 20.4191 5.51988 20.598 5.76377L23.3049 9.38818C23.3699 9.4695 23.4187 9.55894 23.4512 9.6565C23.4837 9.75406 23.5 9.85976 23.5 9.97358V13.1205C23.5 13.3969 23.4065 13.6286 23.2195 13.8156C23.0325 14.0026 22.8008 14.0961 22.5244 14.0961H21.5487C21.5487 14.9379 21.2539 15.6535 20.6641 16.2428C20.0743 16.8321 19.3581 17.1267 18.5156 17.1267C17.6731 17.1267 16.9578 16.8321 16.3696 16.2428C15.7815 15.6535 15.4874 14.9379 15.4874 14.0961H8.38806C8.38806 14.9402 8.09317 15.6564 7.50339 16.2445C6.91363 16.8327 6.19747 17.1267 5.35493 17.1267ZM5.35738 15.5077C5.75317 15.5077 6.08738 15.3713 6.36001 15.0987C6.63263 14.8261 6.76895 14.4919 6.76895 14.0961C6.76895 13.7003 6.63263 13.3661 6.36001 13.0934C6.08738 12.8208 5.75317 12.6845 5.35738 12.6845C4.96158 12.6845 4.62736 12.8208 4.35473 13.0934C4.08211 13.3661 3.94579 13.7003 3.94579 14.0961C3.94579 14.4919 4.08211 14.8261 4.35473 15.0987C4.62736 15.3713 4.96158 15.5077 5.35738 15.5077ZM2.11911 12.477H2.89961C3.12932 12.077 3.4611 11.7418 3.89495 11.4712C4.32881 11.2007 4.81629 11.0654 5.35738 11.0654C5.88465 11.0654 6.36866 11.1989 6.80942 11.466C7.25019 11.7331 7.58543 12.0701 7.81515 12.477H15.5289V2.82445C15.5289 2.72757 15.4978 2.64799 15.4355 2.5857C15.3732 2.52342 15.2936 2.49228 15.1967 2.49228H2.45125C2.36822 2.49228 2.29211 2.52688 2.2229 2.59607C2.15371 2.66528 2.11911 2.7414 2.11911 2.82445V12.477ZM18.5181 15.5077C18.9139 15.5077 19.2481 15.3713 19.5207 15.0987C19.7933 14.8261 19.9296 14.4919 19.9296 14.0961C19.9296 13.7003 19.7933 13.3661 19.5207 13.0934C19.2481 12.8208 18.9139 12.6845 18.5181 12.6845C18.1223 12.6845 17.7881 12.8208 17.5154 13.0934C17.2428 13.3661 17.1065 13.7003 17.1065 14.0961C17.1065 14.4919 17.2428 14.8261 17.5154 15.0987C17.7881 15.3713 18.1223 15.5077 18.5181 15.5077ZM17.148 10.3181H21.9847L19.2861 6.73731C19.2515 6.6958 19.2117 6.66293 19.1667 6.6387C19.1218 6.61448 19.0716 6.60238 19.0162 6.60238H17.148V10.3181Z" fill="#4988CE"/>
</svg>
