<svg width="18" height="24" viewBox="0 0 18 24" fill="none" xmlns="http://www.w3.org/2000/svg">
<path d="M6.15537 11.3679C5.93764 11.3679 5.7576 11.2967 5.61524 11.1545C5.47286 11.0122 5.40167 10.8323 5.40167 10.6147C5.40167 10.3972 5.47286 10.2171 5.61524 10.0744C5.7576 9.93181 5.93764 9.86049 6.15537 9.86049H11.8446C12.0624 9.86049 12.2424 9.93162 12.3848 10.0739C12.5271 10.2161 12.5983 10.396 12.5983 10.6136C12.5983 10.8312 12.5271 11.0113 12.3848 11.1539C12.2424 11.2965 12.0624 11.3679 11.8446 11.3679H6.15537ZM7.41965 14.7716C7.20192 14.7716 7.02188 14.7005 6.87952 14.5583C6.73714 14.416 6.66595 14.2361 6.66595 14.0185C6.66595 13.801 6.73714 13.6209 6.87952 13.4782C7.02188 13.3356 7.20192 13.2643 7.41965 13.2643H10.5803C10.7981 13.2643 10.9781 13.3354 11.1205 13.4777C11.2629 13.6199 11.334 13.7998 11.334 14.0174C11.334 14.235 11.2629 14.4151 11.1205 14.5577C10.9781 14.7003 10.7981 14.7716 10.5803 14.7716H7.41965ZM7.11575 23.5C6.69926 23.5 6.3188 23.3753 5.97439 23.1258C5.62998 22.8763 5.39371 22.5424 5.26557 22.1239L4.25415 18.6472C3.21841 17.9356 2.38083 16.9955 1.7414 15.8269C1.10195 14.6582 0.782223 13.3826 0.782223 12C0.782223 10.6174 1.10195 9.34178 1.7414 8.17312C2.38083 7.00449 3.21841 6.06439 4.25415 5.35284L5.26557 1.8761C5.39371 1.45765 5.62998 1.12369 5.97439 0.874225C6.3188 0.624741 6.69926 0.5 7.11575 0.5H10.8842C11.3007 0.5 11.6812 0.624741 12.0256 0.874225C12.37 1.12369 12.6063 1.45765 12.7344 1.8761L13.7458 5.35284C14.7816 6.06439 15.6192 7.00449 16.2586 8.17312C16.898 9.34178 17.2178 10.6174 17.2178 12C17.2178 13.3826 16.898 14.6582 16.2586 15.8269C15.6192 16.9955 14.7816 17.9356 13.7458 18.6472L12.7344 22.1239C12.6063 22.5424 12.37 22.8763 12.0256 23.1258C11.6812 23.3753 11.3007 23.5 10.8842 23.5H7.11575ZM9 18.3214C10.7489 18.3214 12.2397 17.7051 13.4724 16.4724C14.7051 15.2397 15.3214 13.7489 15.3214 12C15.3214 10.2511 14.7051 8.76029 13.4724 7.52762C12.2397 6.29495 10.7489 5.67861 9 5.67861C7.25108 5.67861 5.76029 6.29495 4.52761 7.52762C3.29494 8.76029 2.67861 10.2511 2.67861 12C2.67861 13.7489 3.29494 15.2397 4.52761 16.4724C5.76029 17.7051 7.25108 18.3214 9 18.3214ZM6.57356 4.14694C7.00308 4.02538 7.41409 3.93096 7.80658 3.86368C8.1991 3.79642 8.5969 3.76279 9 3.76279C9.40309 3.76279 9.8009 3.79642 10.1934 3.86368C10.5859 3.93096 10.9969 4.02538 11.4264 4.14694L10.8964 2.39639H7.10358L6.57356 4.14694ZM7.10358 21.6036H10.8964L11.4264 19.8531C10.9969 19.9746 10.5859 20.0638 10.1934 20.1205C9.8009 20.1772 9.40309 20.2056 9 20.2056C8.5969 20.2056 8.1991 20.1772 7.80658 20.1205C7.41409 20.0638 7.00308 19.9746 6.57356 19.8531L7.10358 21.6036ZM7.10358 21.6036H6.57356H11.4264H7.10358Z" fill="#4988CE"/>
</svg>
